<?xml version="1.0" standalone="no"?>
<!DOCTYPE svg PUBLIC "-//W3C//DTD SVG 1.1//EN" "http://www.w3.org/Graphics/SVG/1.1/DTD/svg11.dtd" >
<svg xmlns="http://www.w3.org/2000/svg">
<metadata></metadata>
<defs>
<font id="leckerli_oneregular" horiz-adv-x="1191" >
<font-face units-per-em="2048" ascent="1638" descent="-410" />
<missing-glyph horiz-adv-x="819" />
<glyph horiz-adv-x="0" />
<glyph unicode="&#xd;" horiz-adv-x="819" />
<glyph unicode=" "  horiz-adv-x="819" />
<glyph unicode="&#x09;" horiz-adv-x="819" />
<glyph unicode="&#xa0;" horiz-adv-x="819" />
<glyph unicode="!" horiz-adv-x="1017" d="M328 46.5q0 105.5 68.5 189t138.5 83.5q123 0 190 -137q-41 -104 -123 -172.5t-178 -68.5t-96 105.5zM430 590q0 170 85 429t224 394q35 35 74 35q66 0 114 -48t50 -79q-2 -55 -40 -117.5t-83 -131t-82 -143.5t-37 -135.5t10.5 -114.5t10.5 -89q0 -61 -76 -99t-143.5 -38 t-87 33.5t-19.5 103.5z" />
<glyph unicode="&#x22;" horiz-adv-x="577" d="M102 1260h127v-394h-106zM328 866v394h127v-394h-127z" />
<glyph unicode="#" horiz-adv-x="950" d="M82 373v119h156l41 208h-148v119h172l72 363h127l-72 -363h180l72 363h127l-72 -363h131v-119h-155l-41 -208h147v-119h-170l-74 -373h-126l73 373h-180l-74 -373h-127l74 373h-133zM365 492h180l41 208h-180z" />
<glyph unicode="$" horiz-adv-x="1167" d="M61 423.5q0 147.5 78 267.5t174 120q74 0 74 -43t-29.5 -132t-29.5 -142.5t23.5 -109.5t70.5 -85q33 96 73 201.5t76 216.5l19 55q-135 66 -184 109q-98 92 -99 221q0 180 129 282.5t299 102.5l33 -2q14 53 29.5 110.5t33.5 120.5q4 12 23 17q47 0 82 -55.5t35 -94.5 t-37 -153q119 -82 119 -254q0 -121 -54 -121q-29 0 -43 17.5t-28.5 43t-29.5 56t-36 57.5l-94 -287q57 -27 117 -53q221 -102 221 -338q0 -209 -179 -349.5t-403 -154.5q-6 -25 -16 -72q-41 -209 -70 -208q-47 0 -83 49t-36 104t25 141q-121 31 -202 123t-81 239.5z M565 1169q0 -100 86 -163q16 66 32.5 138.5t37.5 155.5q-70 0 -113 -36t-43 -95zM582 289q96 18 160.5 80.5t64.5 143.5t-32 123t-79 75q-51 -172 -114 -422z" />
<glyph unicode="%" horiz-adv-x="1394" d="M164 1192q0 137 84 252t217 115q80 0 120 -30t40 -69q0 -26 -35 -26l-125 10q-68 0 -105 -72q-33 -61 -33.5 -143t29 -116t62.5 -34q63 0 114.5 56.5t51.5 148.5q0 27 -8.5 51.5t-8.5 44.5q0 37 39 37t61.5 -40t22.5 -113q0 -152 -88 -240q-82 -86 -207 -86 q-154 0 -211 139q-20 49 -20 115zM242 26.5q0 30.5 6 49.5l809 1446q6 16 20 16q29 0 70 -57.5t40 -102.5t-20.5 -89t-53.5 -98t-77 -118q-203 -299 -409.5 -661.5t-257.5 -515.5q-4 -6 -21 -7q-33 0 -69.5 53.5t-36.5 84zM766 229q0 137 84 252t217 115q80 0 120 -29.5 t40 -68.5q0 -27 -35 -27l-125 10q-68 0 -104 -71q-33 -61 -34 -143.5t28.5 -116t62.5 -33.5q63 0 114.5 56t51.5 149q0 27 -8.5 51t-8.5 45q0 37 39 37t61.5 -40t22.5 -114q0 -152 -88 -240q-82 -86 -207 -86q-154 0 -211 140q-20 49 -20 114z" />
<glyph unicode="&#x26;" horiz-adv-x="1187" d="M0 369q0 291 293 405q-150 104 -150 324q0 166 117 255t281 89t284.5 -86t120.5 -238q0 -35 -10 -56.5t-25 -21.5q-35 0 -80 56.5t-107 91.5t-124.5 35t-110 -47.5t-47.5 -144.5t80 -169q16 2 33 2h35q70 0 124 -26.5t54 -77.5q2 -72 -137 -92q-37 -4 -73 -4t-93 14 q-123 -72 -123 -238q-2 -104 84 -171.5t205 -67.5t207 85t86 253q0 51 -17.5 116.5t-17.5 105.5t33.5 52t127 12t164 8.5t106.5 19.5t49 19.5t30 8.5q45 0 46 -56.5t-57.5 -117t-123 -60.5t-156.5 17q12 -72 12 -138q-2 -276 -174 -424q-152 -127 -381 -127q-381 0 -516 222 q-49 80 -49 172z" />
<glyph unicode="'" horiz-adv-x="352" d="M102 866v394h127v-394h-127z" />
<glyph unicode="(" horiz-adv-x="1230" d="M143.5 648.5q-0.5 193.5 73.5 361.5q205 446 805 667q14 6 37.5 6t56.5 -16t33 -53q0 -55 -88 -86q-213 -84 -397 -285q-139 -152 -197 -342q-29 -98 -29 -236.5t41 -289t115 -281.5q143 -258 387 -424q25 -18 25 -43q0 -47 -39 -72.5t-80 -25.5t-68 18 q-467 328 -618 752q-57 156 -57.5 349.5z" />
<glyph unicode=")" horiz-adv-x="1230" d="M143 -401q0 55 88 86q213 84 398 284q137 152 194 342q29 98 30 236.5t-40 288.5q-39 152 -113 282q-143 258 -389 424q-25 18 -24 43q0 47 39 72.5t78.5 25.5t68.5 -18q465 -328 621 -754q57 -156 56 -348t-76 -361t-197 -296q-222 -230 -607 -371q-16 -6 -38.5 -6 t-55.5 16.5t-33 53.5z" />
<glyph unicode="*" horiz-adv-x="1093" d="M266 1027q0 32 30 63.5t71 64.5t85 62.5t72 52.5q-37 27 -94 46t-74.5 32.5t-17.5 35.5q0 45 47 74q41 29 90 28t158 -50q55 127 82.5 144t52.5 24.5t50.5 10.5t61 3t35.5 -19q0 -14 -47 -92t-47 -139l156 23q76 0 76 -35t-30 -53.5t-66.5 -27.5t-71.5 -12t-45 -6 q78 -170 96 -223q-2 -31 -59 -55q-78 -27 -93 -25h-2q-63 0 -71 27q-16 49 -68 156q-43 -33 -87 -64t-87 -76t-96.5 -45t-80 21.5t-26.5 53.5z" />
<glyph unicode="+" horiz-adv-x="966" d="M102 479v119h318v322h127v-322h317v-119h-317v-321h-127v321h-318z" />
<glyph unicode="," horiz-adv-x="708" d="M123 -194.5q0 30.5 21.5 47t50 32t56.5 36t42 59.5q-70 45 -69 140t73 156.5t170 61.5q55 0 97 -31t42 -105.5t-31.5 -153.5t-86 -144.5t-125 -108.5t-146.5 -43q-29 0 -61.5 11.5t-32.5 42z" />
<glyph unicode="-" horiz-adv-x="802" d="M94 573q0 166 281 166l323 -6q25 0 25 -24q0 -43 -51 -103.5t-86 -60.5l-183 14l-297 -4q-12 0 -12 18z" />
<glyph unicode="." horiz-adv-x="847" d="M225 78q41 104 123 172.5t178.5 68.5t96.5 -106.5t-69 -190t-138 -81.5q-123 0 -191 137z" />
<glyph unicode="/" horiz-adv-x="944" d="M246 26.5q0 30.5 6 49.5l522 1446q6 16 21 16q29 0 69.5 -57.5t39.5 -113.5t-113.5 -342t-159.5 -406.5t-79 -204.5t-53.5 -141.5t-39 -110.5t-38 -114.5t-48.5 -151.5q-4 -6 -21 -7q-33 0 -69.5 53.5t-36.5 84z" />
<glyph unicode="0" horiz-adv-x="1499" d="M102 612q0 219 91 428q147 348 438 463q102 41 209 41q186 -2 285.5 -68.5t97.5 -144.5q0 -23 -51.5 -22.5t-83 6.5t-103.5 18.5t-161 12.5t-165.5 -60.5t-130.5 -155.5q-106 -190 -104 -440q2 -213 92 -322.5t227 -109.5q82 0 167 41t155 119q156 176 154 440 q2 166 -101 260q-37 37 -69.5 61.5t-32.5 63.5q0 23 45 23q115 0 209 -86q127 -117 127 -336q0 -410 -211 -634t-527 -224q-238 0 -389 153q-168 172 -168 473z" />
<glyph unicode="1" horiz-adv-x="1081" d="M-61 -18q0 76 118.5 151.5t292.5 83.5v33q0 209 131 676q57 205 109 342l-74 -19q-74 -20 -155.5 -66t-112 -62.5t-53.5 -16.5q-18 0 -19 51q0 96 74 175t176 108q39 12 90 28.5t140 43t155 24.5q31 0 59 -70q8 -20 8.5 -64t-29.5 -177t-67 -301q-104 -459 -123 -705h238 q82 -4 82 -43q0 -12 -12.5 -43t-22.5 -63q-20 -68 -86 -68l-428 14q-131 0 -236.5 -18.5t-151.5 -26.5t-74.5 -8t-28.5 21z" />
<glyph unicode="2" horiz-adv-x="1400" d="M0 196.5q0 104.5 77 157t211 52.5t232 -33l41 51q289 434 289 725q0 94 -53.5 145.5t-132 51.5t-127.5 -15q-84 -25 -136 -82q-72 -98 -129 -98q-27 0 -26.5 43t31 106.5t88.5 116.5q135 127 349 126t335.5 -95t121.5 -274q0 -223 -128 -468t-304 -430 q131 -68 225.5 -67.5t162 34t115.5 96t78 62.5t30 -69q0 -139 -133.5 -237.5t-331.5 -100.5q-86 0 -164 32.5t-150 73.5q-125 -135 -325 -135q-127 0 -186.5 63.5t-59.5 168zM199 182q0 -31 23.5 -44t47.5 -13q45 0 121 84q-70 35 -119 35q-29 0 -51 -15.5t-22 -46.5z" />
<glyph unicode="3" horiz-adv-x="1222" d="M10 273q0 44 41 44t81 -25.5t85 -58.5q115 -82 209 -81q164 0 244 89t80 189q0 172 -86 297q-39 -8 -80 -8q-205 0 -201 100q0 94 190 94q27 0 74 -12q86 106 86 248q0 94 -51 145.5t-132 51.5t-128 -15q-86 -25 -137 -82q-80 -98 -129 -98q-27 0 -27 43t32 106.5 t89 116.5q135 127 348 126t335 -95t122 -274q0 -100 -53.5 -197.5t-145.5 -165.5q233 -150 234 -405q0 -209 -201 -340q-172 -111 -385 -111t-361 111q-63 49 -98 106t-35 101z" />
<glyph unicode="4" horiz-adv-x="1404" d="M72 680q0 127 219 467q39 61 73.5 114.5t55.5 90.5q55 100 108 100q16 0 28.5 -23.5t12.5 -58.5t-24.5 -105.5t-87 -241.5t-90.5 -316q72 29 176 33.5t227 4.5q113 432 209 648q23 49 63.5 95t94.5 46q27 0 26.5 -47t-10.5 -122t-25.5 -172t-36 -212t-38.5 -238 q49 -2 92 -2l80 2q160 0 159 -43q0 -12 -16 -42.5t-29 -63.5q-27 -68 -106.5 -68t-210.5 9q-41 -295 -41 -494q0 -57 -82 -57q-129 0 -176 50t-47 169t47 334q-147 -10 -254 -27.5t-180 -22.5h-25q-78 37 -122 82t-70 111z" />
<glyph unicode="5" horiz-adv-x="1282" d="M41 273q0 44 41 44t80 -25.5t84 -58.5q115 -82 221 -81q160 0 236.5 77.5t76.5 198.5q0 311 -270 311l-76 -2q-23 -30 -76 -30q-90 29 -108 90q20 178 86 393q20 70 49 129q-66 -6 -100.5 -6t-34.5 20q0 37 41 79t115 79q168 82 409 80l414 -6q33 0 33 -39 q0 -12 -10.5 -43t-18.5 -64q-16 -68 -70 -67l-311 14q-90 0 -254 -20q-20 -86 -51 -188.5t-64 -231.5q45 8 126 8t178.5 -25.5t170.5 -83.5q162 -125 162 -371.5t-168 -372.5t-440 -126q-190 0 -338 111q-63 49 -98 106t-35 101z" />
<glyph unicode="6" horiz-adv-x="1462" d="M82 516q0 53 111 109q2 158 53 321.5t147 295.5t234.5 216t312.5 84t274.5 -66.5t98.5 -144.5q0 -41 -33 -41q-18 0 -124.5 29t-210 28t-172 -45.5t-120.5 -113.5q-104 -145 -135 -348q182 82 391 82t335 -129t126 -306q0 -231 -180 -368t-457 -137q-205 -2 -356.5 128 t-179.5 398q-45 -20 -80 -20.5t-35 28.5zM506 655q8 -197 93 -306t212 -110t206 73.5t79 178t-67.5 173t-217 69.5t-305.5 -78z" />
<glyph unicode="7" horiz-adv-x="1226" d="M61 1333q0 37 41 79t115 79q168 82 410 80l413 -6q49 0 50 -66q0 -39 -16.5 -82t-39.5 -57l-137 -447h182q66 -4 66 -36q0 -18 -10.5 -49t-18.5 -64q-16 -68 -71.5 -68t-208.5 11q-137 -461 -138 -660q0 -57 -82 -57q-129 0 -176 50t-47 176t127 478 q-104 -10 -202.5 -23.5t-157.5 -13.5q-27 0 -27 21q2 76 138.5 139.5t330.5 89.5q63 162 191 453q-61 6 -129 6q-102 0 -309.5 -26.5t-266.5 -26.5q-27 0 -27 20z" />
<glyph unicode="8" horiz-adv-x="1234" d="M102 324q0 274 242 409q70 37 143 68q-133 80 -176 129q-88 100 -88 211q0 199 118 300t321 101q141 2 251 -84q111 -82 109 -178q0 -18 -16 -18q-47 0 -152.5 40.5t-197 42t-142.5 -41.5t-51 -103q0 -102 80 -174q53 -47 186 -119q72 39 116 90.5t44 135.5 q0 25 -13.5 47t-13.5 42.5t15 20.5q49 0 96 -53t47 -137q0 -164 -115 -246q227 -147 228 -348q0 -211 -146 -357q-158 -152 -407 -153q-211 -2 -344.5 106.5t-133.5 268.5zM422 358q0 -63 46 -105t133 -42t145.5 54t58.5 151q0 166 -141 274q-117 -53 -160 -102 q-82 -92 -82 -230z" />
<glyph unicode="9" horiz-adv-x="1417" d="M92 273q0 44 41 44t81 -25.5t85 -58.5q115 -82 229 -81q217 0 316 174q82 139 82 401v12q-152 -76 -342.5 -75.5t-315.5 110t-125 305t163 328.5t382 133q405 2 518 -463q74 45 94 45q35 0 35 -37q0 -23 -28.5 -61.5t-75.5 -77.5q8 -82 8 -174t-10 -194 q-55 -623 -666 -623q-190 0 -338 111q-63 49 -98 106t-35 101zM418 1078.5q0 -97.5 60.5 -162t189.5 -64.5t256 70q-10 184 -62 280q-70 129 -219 129q-84 0 -154.5 -77.5t-70.5 -175z" />
<glyph unicode=":" horiz-adv-x="960" d="M307 78q41 104 123 172.5t178.5 68.5t96.5 -106.5t-69 -190t-138 -81.5q-123 0 -191 137zM338 902.5q0 105.5 96 105.5t178 -69t123 -173q-27 -55 -73 -96t-97 -41q-90 0 -159 84q-68 84 -68 189.5z" />
<glyph unicode=";" horiz-adv-x="899" d="M184 -194.5q0 30.5 21.5 47t50.5 32t56.5 36t41.5 59.5q-70 45 -68.5 140t73 156.5t169.5 61.5q55 0 97.5 -31t42.5 -105.5t-32 -153.5t-86 -144.5t-125 -108.5t-146 -43q-29 0 -62 11.5t-33 42zM276 766q41 104 123 173t178.5 69t96.5 -106.5t-68.5 -190.5t-138.5 -82 q-123 0 -191 137z" />
<glyph unicode="&#x3c;" horiz-adv-x="800" d="M61 543l545 379l68 -99l-400 -276l404 -281l-72 -102z" />
<glyph unicode="=" horiz-adv-x="966" d="M123 362v119h721v-119h-721zM123 690v119h721v-119h-721z" />
<glyph unicode="&#x3e;" horiz-adv-x="800" d="M123 819l72 103l544 -379l-544 -379l-68 98l397 277z" />
<glyph unicode="?" horiz-adv-x="1171" d="M246 1098q0 43 30.5 105.5t88.5 115.5q135 127 349 127t335.5 -94.5t121.5 -260t-38.5 -258t-98 -146.5t-127 -85t-127 -60.5t-98.5 -72.5t-39 -121q0 -12 -20 -12q-39 0 -83 26.5t-44 69.5q0 180 92 268q39 37 85 61.5t85 57.5q92 78 92 234q0 94 -53.5 145t-132 51 t-127 -14t-81 -35.5t-55 -47.5t-42 -47.5t-40 -35.5t-47 -14t-26.5 43zM336 92q2 88 73.5 123t156.5 35t85 -86t-54 -155.5t-114.5 -68.5t-103.5 51t-43 101z" />
<glyph unicode="@" horiz-adv-x="1906" d="M246 461q0 145 73.5 276t194.5 222.5t278.5 138.5t288.5 47q244 0 402 -117q176 -133 175 -334.5t-126 -350t-285 -148.5q-78 0 -114 110q-80 -137 -246 -137q-94 0 -153.5 57.5t-59.5 143.5q0 176 102.5 314t270.5 138q74 0 114 -18q37 61 81 61t79 -36.5t35 -70.5 t-18.5 -60t-28.5 -42q0 -248 41 -247q45 0 80.5 63.5t35.5 137t-28.5 151.5t-83.5 137q-123 131 -325 131t-367.5 -150.5t-165.5 -374.5t176 -378t399 -154t412 176q49 45 86 86q88 90 126 90.5t38 -69.5q0 -104 -61.5 -185t-160.5 -135q-205 -111 -483 -112 q-344 2 -567 186q-215 180 -215 453zM889 344q14 -31 59 -31t90 32t72 106q-4 37 -4 69v68q0 72 18 137q-166 -45 -227 -193q-43 -110 -8 -188z" />
<glyph unicode="A" horiz-adv-x="1423" d="M-41 616q0 61 100 125q102 63 277 97q193 489 471 653q102 61 217 61q205 -2 296 -110q92 -110 92 -291q0 -178 -109 -463q-41 -111 -76 -201t-35 -145t8 -84t39 -29q55 0 260 213q37 41 53 41q35 0 35 -94q0 -51 -43 -123.5t-111.5 -133t-152.5 -99.5t-164 -39 q-121 0 -167 60.5t-46 178t92 404.5q-283 12 -411 12h-29q-37 -227 -37 -477q0 -111 -84 -152q-39 -18 -74.5 -34.5t-76.5 -16.5q-103 0 -103 187q0 184 84 471q-90 -10 -158.5 -20.5t-107.5 -10.5t-39 20zM600 854l465 -6q51 164 51 246q0 178 -133 178q-135 0 -232.5 -114 t-150.5 -304z" />
<glyph unicode="B" horiz-adv-x="1449" d="M68 295q38 0 145 -27v2q0 160 37 328q63 293 147 459q90 184 187 184q27 0 27 -89q-1 -2 -1 -3q0 -92 -17.5 -188.5t-36.5 -189.5t-36.5 -169t-17.5 -108l-21 -310q119 -33 202 -33q1 1 3 1q84 0 152 28q170 72 170 250q0 106 -20.5 176t-74.5 123q-46 -10 -77 -10 q-199 0 -195 100q0 94 190 94q45 0 87 -10q68 68 67 205q0 238 -317 238q-166 0 -316 -72q-55 -27 -99 -49.5t-81 -22.5t-37 23q0 27 41 79t115 105q188 131 428 133q313 0 461 -125q127 -104 127 -284q0 -209 -205 -320q197 -113 233 -276q13 -57 13 -151v-2 q0 -93 -52 -177t-137 -141q-172 -111 -440 -111q-190 0 -424 86q-156 57 -229 137q-36 38 -36 76q-1 41 38 41z" />
<glyph unicode="C" horiz-adv-x="1124" d="M123 510q0 305 147 580q49 90 111 165q-47 55 -74.5 116t-27.5 91q0 55 40 56q29 -2 66 -39l64 -62q25 -25 51 -41q203 172 437 172t304 -131q25 -49 25 -121q0 -109 -94.5 -182.5t-253 -73.5t-328.5 66q-145 -248 -146 -518q0 -375 299 -375q185 0 347 119q53 39 96 95 t72.5 56t29.5 -89t-50 -168t-132 -132q-166 -110 -393 -110h-4q-279 0 -432.5 139t-153.5 387zM688 1233q104 -35 227 -35t123 68q0 80 -100 80q-137 0 -250 -113z" />
<glyph unicode="D" horiz-adv-x="1576" d="M31 354q0 25 32.5 25t202.5 -45q39 336 219 729q63 143 152 143q16 0 31.5 -34.5t15.5 -86.5q0 -61 -64.5 -337.5t-84.5 -481.5q133 -31 235 -31q2 1 4 1q104 0 189.5 54t146.5 140q127 182 127 438q-2 473 -377 473q-133 -2 -471 -118q-66 -23 -115 -23t-49 29 q0 39 57.5 92t147.5 102q221 119 430 119q287 0 471 -153q215 -180 215 -546v-7q0 -158 -49 -311.5t-149.5 -273.5t-254 -193.5t-362.5 -73.5q-84 0 -213 36q-14 -38 -69 -38h-3q-106 0 -144 35.5t-44 117.5q-98 55 -162.5 114.5t-64.5 104.5z" />
<glyph unicode="E" horiz-adv-x="1083" d="M82 414q0 293 293 409q-150 104 -150 316q0 100 56 186q-51 57 -83 120.5t-32 96.5q0 57 41 57q29 0 70.5 -44t68.5 -70.5t55 -42.5q174 106 410 106t313 -131q29 -49 29 -121q0 -109 -94 -182.5t-248 -73.5t-287 99q-2 -8 -2 -17v-45q0 -37 23.5 -87t58.5 -83q31 6 68 6 q178 0 178 -90q0 -104 -205 -104q-45 0 -98 16q-59 -41 -91 -102.5t-32 -177t91 -171t215 -55.5t201 40t134 87t93 87t52 40t26.5 -21.5t10.5 -55.5q0 -164 -181 -288t-433 -124q-393 0 -510 227q-41 80 -41 193zM584 1266q111 -68 226.5 -68t115.5 68q0 80 -131 80 t-211 -80z" />
<glyph unicode="F" horiz-adv-x="1167" d="M31 1182q2 158 213 256q207 96 508 96h12l614 -10q55 0 56 -43q0 -12 -16.5 -44t-28.5 -69q-27 -74 -115 -74h-66l-272 2h-158q-16 -117 -98 -381l375 -6q33 0 32 -39q0 -12 -10 -42.5t-18 -63.5q-16 -68 -70 -68l-311 15h-27q-12 0 -28 -2q-106 -391 -107 -619 q0 -121 -235 -121q-51 0 -60.5 52.5t-9.5 138.5q0 184 88 514q-119 -16 -197 -17q-27 0 -26 21q0 47 64.5 99t209.5 91q66 233 150 428q-205 -10 -336 -135q-33 -33 -53.5 -51t-36 -18t-29.5 24.5t-14 65.5z" />
<glyph unicode="G" horiz-adv-x="1376" d="M123 489q0 324 164 615q-49 57 -80 119.5t-31 95.5q0 55 38 55h3q27 0 61.5 -32.5t56 -55t46.5 -41.5q106 135 249.5 219t315.5 84t268.5 -63.5t96.5 -221t-122 -262t-339 -104.5q-150 0 -324 68q-82 -201 -82 -374t71 -255t228 -82q94 0 166 68q23 168 37 223 q35 135 107 135q57 0 108 -79t49 -134q0 -92 -73 -342q143 109 329 321q27 31 45 31q29 0 29 -67q0 -131 -131 -279.5t-348 -236.5q-16 -39 -26.5 -74t-27 -84t-57.5 -107.5t-102 -99.5q-131 -90 -300 -90t-282.5 74.5t-113.5 205.5q0 63 61 104.5t159.5 71t221.5 52 t246 51.5q16 47 24 88q-80 -61 -196 -61q-244 0 -383 100q-162 117 -162 364zM360 -328q0 -39 52.5 -56t111.5 -19q139 0 244 208q-113 -29 -190.5 -45t-126 -28.5t-70 -24.5t-21.5 -35zM594 1104q113 -49 272 -49q98 0 157.5 53t59.5 115.5t-39.5 92.5t-105.5 30 q-197 0 -344 -242z" />
<glyph unicode="H" horiz-adv-x="1466" d="M31 1182q0 150 252 227q201 61 467 64h4q14 0 39.5 -16.5t25.5 -53.5t-13 -83t-36 -69q-12 -96 -102 -397q217 0 401 -4q96 389 188 541q61 88 123 127q25 16 50.5 16t25.5 -80t-13 -168t-34 -203q-68 -377 -101.5 -602t-33.5 -434q0 -57 -82 -57q-129 0 -176 50t-47 182 t53 417q-225 10 -285 10h-84q-23 0 -45 -2q-92 -352 -92 -557q0 -121 -235 -121q-51 0 -60.5 52.5t-9.5 170t74 422.5q-125 -18 -183 -18q-27 0 -26 20q0 45 66.5 102.5t195.5 92.5q76 262 151 430q-221 -4 -325 -86q-33 -25 -53.5 -44t-36 -19t-29.5 24.5t-14 65.5z" />
<glyph unicode="I" horiz-adv-x="671" d="M133 209q2 184 101.5 589.5t187.5 602.5q23 51 63.5 97t108.5 46q29 0 48.5 -34.5t19.5 -80t-16.5 -134.5t-41 -203.5t-55.5 -247.5q-111 -506 -111 -797q0 -57 -82 -57q-129 0 -176 50t-47 169z" />
<glyph unicode="J" horiz-adv-x="962" d="M-287 -260q0 55 56.5 104.5t164 103.5t418.5 165q12 72 20.5 134t18.5 107q43 293 170 690q37 113 70 199q-84 51 -164 51q-129 0 -283 -41l-110 -26q-49 -12 -76 -13q-61 0 -61 46q0 27 44 66.5t117 76.5q182 90 396 90q305 0 391 -104q24 -28 24 -76q0 -184 -184 -1061 q242 98 296 161.5t85 63.5t31 -63.5t-38 -110.5t-119 -106.5t-296 -151.5q-16 -82 -61 -182q-154 -424 -502 -424q-170 0 -289 73.5t-119 227.5zM-78 -285q0 -51 61.5 -83.5t116.5 -33.5h5q52 0 79 24q29 26 63 83t66 201q-106 -37 -181 -61.5t-121 -45t-67.5 -39 t-21.5 -45.5z" />
<glyph unicode="K" horiz-adv-x="1390" d="M20 1171q0 113 101 175q143 86 407 114q117 12 213 13h4q14 0 40 -16.5t26 -53.5t-13.5 -83t-35.5 -69q-12 -98 -53 -235t-86 -293q-115 -402 -115 -633q0 -121 -236 -121q-51 0 -60 52.5t-9 142.5q0 176 92 522t186 555q-219 -4 -327 -86q-33 -25 -53.5 -44t-36 -19 t-30 23.5t-14.5 55.5zM666 759q0 46 42 66.5t95 20.5t94 -25q111 119 201 312q41 88 78.5 181t78.5 191q10 25 44 30t89.5 5t78 -36t22.5 -116.5t-43 -185t-111 -203.5q-141 -207 -325 -311q33 -68 53 -148.5t38.5 -149t42 -115t58.5 -46.5t83 40t95 87t85.5 87t54.5 40 q34 0 34 -89v-5q0 -51 -43 -123.5t-111.5 -133t-152.5 -99.5t-159.5 -39t-118.5 28.5t-68 77.5q-35 70 -57.5 265.5t-44.5 273.5q-53 10 -93 42t-40 78z" />
<glyph unicode="L" horiz-adv-x="1212" d="M20 196.5q0 104.5 77 157t196 52.5q63 0 119 -7q0 250 55 488q-68 35 -116 78t-48 67q0 66 29 66q41 0 85 -23.5t95 -36.5q127 367 348 473q78 37 164 37q324 0 324 -272q0 -156 -117 -268q-162 -156 -492 -164q-22 -165 -22 -388v-20q0 -57 -15 -129q72 -37 139.5 -67.5 t166.5 -30.5q51 0 101 43t94 94t78.5 94t57.5 43q31 0 31 -69q0 -145 -135 -281.5t-330 -138.5q-137 0 -317 108q-129 -137 -322 -137q-127 0 -186.5 63.5t-59.5 168zM219 182q2 -57 80 -57t98 90q-57 29 -94 29q-82 -1 -84 -62zM770 1020q147 12 248.5 83t101.5 142 q0 103 -100 103q-172 0 -250 -328z" />
<glyph unicode="M" horiz-adv-x="1947" d="M0 1278q0 113 104 184q100 74 244 74q184 0 217 -172q8 -51 13 -109q152 285 383 285q252 0 288 -242q11 -65 11 -137v-12v-16q133 184 315 184q258 0 258 -311q0 -135 -42 -316.5t-61.5 -260.5t-19.5 -122q0 -78 54.5 -78t258.5 213q38 41 54 41q34 0 34 -89v-5 q0 -51 -43 -123.5t-111.5 -133t-152.5 -99.5t-177 -39t-145 60.5t-52 135t24.5 169t52.5 196.5q78 272 80 383q0 47 -12 72.5t-47 25.5q-61 0 -131 -73.5t-131 -188.5q-141 -262 -150 -512q4 -29 8 -57.5t4 -61.5q0 -66 -64.5 -120t-143.5 -54q-47 0 -70 46t-23 114 t31 184.5t68 247.5q98 346 100 516q0 86 -21.5 135.5t-82.5 49.5q-111 0 -219.5 -158t-194.5 -490q-23 -86 -35 -149l-2 -39q39 -188 39 -246q0 -119 -84 -160q-39 -18 -75 -34.5t-77 -16.5q-102 0 -102 195.5t109 765.5q39 205 38 229q0 166 -83 166q-29 0 -52.5 -16.5 t-47 -35t-48.5 -34.5t-56.5 -16t-31.5 55z" />
<glyph unicode="N" horiz-adv-x="1415" d="M0 1278q0 113 104 184q100 74 244 74q201 0 225 -197q7 -51 7 -110v-15v-14q78 150 187.5 245t254.5 95q201 0 291 -106q89 -108 89 -283q0 -193 -108 -467q-41 -106 -75.5 -196.5t-34.5 -151.5q0 -106 47 -107q51 0 178 127q33 33 70 80t57 47q42 0 42 -76 q0 -71 -42 -141q-43 -72 -111.5 -133t-152.5 -100t-164 -39q-121 0 -167 60.5t-46 140t14 157.5q25 123 144 475q55 168 55 252t-32 133.5t-96.5 49.5t-125.5 -44t-115 -116q-96 -125 -170.5 -327t-97.5 -349q39 -188 39 -246q0 -119 -84 -160q-39 -18 -75 -34.5t-77 -16.5 q-102 0 -102 195.5t109 765.5q39 205 38 229q0 166 -83 166q-29 0 -52.5 -16.5t-47 -35t-48.5 -34.5t-56.5 -16t-31.5 55z" />
<glyph unicode="O" horiz-adv-x="1738" d="M143 612q0 180 58.5 348t166 297t261 207t345 78t322.5 -67.5t131 -143.5q0 -22 -56 -22h-5q-23 0 -59.5 6t-137 18.5t-214 12.5t-206 -60.5t-155 -155t-96 -211t-33.5 -229.5q0 -205 94 -319.5t262 -114.5q303 0 465 215q49 66 80 145q-150 18 -229.5 111.5t-79.5 230 t75.5 216t203.5 79.5t197 -97t69 -245q0 -51 -5 -96q37 16 61.5 34.5t49.5 18.5q41 0 41 -34q0 -72 -48 -124.5t-128 -78.5q-61 -299 -261 -473t-517.5 -174t-495.5 192q-156 170 -156 436zM1319 1004q0 -123 98 -179q6 55 6 115q0 133 -61 133q-43 0 -43 -69z" />
<glyph unicode="P" horiz-adv-x="1253" d="M123 1225q0 35 67 114q68 74 214.5 137.5t308.5 63.5h8q299 0 467 -143q147 -127 147 -329t-145.5 -360.5t-363.5 -158.5t-218 92q0 27 30 35t75 15t98 21.5t98 53.5q104 90 105 301q0 135 -91.5 207t-262.5 72t-320 -72q-55 -27 -99 -49.5t-81 -22.5t-37 23zM164 168 q0 199 80 491q133 483 284 570q20 12 45 12t25 -80t-8 -141q-16 -123 -58.5 -317.5t-42.5 -229.5l-20 -383q0 -121 -236 -121q-51 0 -60 52.5t-9 146.5z" />
<glyph unicode="Q" horiz-adv-x="1622" d="M20 197q0 96 90.5 164.5t262.5 68.5q221 0 364 -133q41 -39 78 -82q193 96 297.5 273.5t104.5 393.5t-100.5 318.5t-248.5 102.5q-209 0 -340 -135.5t-131 -362.5q0 -86 19.5 -144.5t19.5 -87t-22 -28.5q-88 0 -158 91t-70 252t60.5 282.5t159.5 203.5q199 164 476 164 t461 -156q205 -172 207 -471q0 -342 -166 -587q-141 -209 -391 -324q88 -88 193.5 -88t172 7t108.5 7t42 -18q0 -47 -91 -105.5t-265 -58.5q-213 0 -365 182q-150 -41 -340 -41t-309 81t-119 231zM266 188q0 -61 185 -61q66 0 172 23q-96 96 -201 96q-63 0 -109.5 -14.5 t-46.5 -43.5z" />
<glyph unicode="R" horiz-adv-x="1333" d="M123 1225.5q0 23.5 39 77t114 106.5q189 132 426 132h4q240 -1 396 -91q182 -106 182 -320v-7q0 -171 -92 -285q-94 -116 -234 -168q31 -68 50.5 -146t38 -143.5t42 -108.5t57.5 -43t82 40t95 87t85 87t54 40q35 0 35 -94q0 -51 -43 -123.5t-111.5 -133t-152.5 -99.5 t-160 -39t-119 28.5t-67 77.5q-35 70 -57.5 265.5t-45.5 273.5q-53 10 -93 42t-40 78t42 66.5t96.5 20.5t97.5 -27q57 47 93 111.5t36 174t-74 175.5t-216 66t-218 -23t-130 -49.5t-96 -49t-79 -22.5t-37 23.5zM143 167q0 198 92.5 499t192.5 458q20 31 59 64t84 33 q27 0 27 -70t-8 -131q-18 -119 -47 -221q-74 -279 -74 -326v-301q0 -111 -84 -152q-39 -18 -75 -34.5t-81 -16.5q-86 0 -86 198z" />
<glyph unicode="S" horiz-adv-x="1167" d="M51 379q0 129 84 250t178 121q74 0 74 -45q0 -66 -20.5 -130.5t-20.5 -142.5q0 -178 152 -178q166 0 223 115q20 41 20 105.5t-30 119.5q-51 88 -176 194q-207 176 -207 365.5t118.5 292t272 102.5t244 -77.5t90.5 -233.5q0 -102 -69 -178t-181 -94q51 -43 102 -88 q49 -45 90 -99q90 -121 90 -289q0 -117 -54 -211t-141 -158.5t-195.5 -99t-202.5 -34.5q-201 0 -312 92q-129 104 -129 301zM565 1276q25 -88 73 -149.5t105 -112.5q117 117 117 243q0 39 -41 66q-45 25 -94 25q-111 0 -160 -72z" />
<glyph unicode="T" horiz-adv-x="1130" d="M61 1212q0 27 41 79t117 106q193 131 428 133l674 -6q55 0 55 -43q0 -12 -16.5 -44t-28.5 -69q-27 -74 -111.5 -74t-404.5 13q-8 -90 -32.5 -230.5t-53.5 -306.5q-70 -424 -72 -680q0 -121 -235 -121q-51 0 -60.5 52.5t-9.5 130t11.5 167t29.5 193.5q35 201 99.5 433.5 t128.5 359.5q-129 -8 -256 -46t-180.5 -53.5t-88.5 -15.5t-35 22z" />
<glyph unicode="U" horiz-adv-x="1415" d="M0 1278q0 113 104 184q100 74 239.5 74t209.5 -115q53 -84 53 -189.5t-22.5 -204.5t-48 -203.5t-48 -212t-22.5 -176t6 -91.5q29 -90 139 -90q143 0 250 180q90 152 127 369l12 92l-8 428q0 93 82 155q79 60 166 60h6q37 0 47.5 -54t10.5 -120t-8.5 -126t-19.5 -139 t-26 -169q-51 -358 -51 -503v-11q0 -186 51 -187q31 0 76 39t90 85t83 85t52 39q29 0 29 -69q0 -143 -144.5 -278.5t-308.5 -135.5h-4q-98 0 -135 88q-29 72 -29 229q-137 -317 -407 -317q-182 0 -289.5 91t-107.5 288q0 47 52 248.5t82.5 331.5t30.5 206q0 166 -83 166 q-29 0 -52.5 -16.5t-47 -35t-48.5 -34.5t-56.5 -16t-31.5 55z" />
<glyph unicode="V" horiz-adv-x="1347" d="M0 1278q0 113 104 184q100 74 239.5 74t209.5 -115q53 -84 53 -189.5t-22.5 -204.5t-48 -203.5t-48 -212t-22.5 -176t6 -91.5q29 -90 156 -90q96 0 180 55q231 152 295 600q-166 10 -255 105.5t-89 257.5q0 117 75.5 196.5t206.5 80.5h3q129 0 194 -91q66 -92 66 -250 v-47q0 -25 -3 -47q35 16 59.5 33.5t49.5 17.5q41 0 41 -35q0 -68 -42 -117.5t-114 -76.5q-20 -264 -66 -403.5t-98.5 -231.5t-134.5 -162q-172 -145 -444 -145q-182 0 -289.5 91t-107.5 288q0 47 52 248.5t82.5 331.5t30.5 206q0 166 -83 166q-29 0 -52.5 -16.5t-47 -35 t-48.5 -34.5t-56.5 -16t-31.5 55zM1020 1303q0 -128 100 -183q4 57 4 117q0 133 -61 133h-2q-41 0 -41 -67z" />
<glyph unicode="W" horiz-adv-x="2105" d="M0 1278q0 113 104 184q100 74 241.5 74t207.5 -100q53 -80 53 -217q0 -59 -22 -154q-117 -487 -119 -676q2 -90 76 -123q29 -12 67 -12q182 0 344 215q-82 287 -82 651q0 135 64.5 220t210.5 85q109 0 165 -61t56 -162q0 -207 -109 -510q-37 -102 -86 -203 q88 -237 233 -237h1q164 0 287 221q90 162 147 440q-150 20 -236.5 127t-86.5 228t75.5 200.5t206.5 80.5h3q129 0 193 -92q66 -93 66 -253v-41q0 -23 -2 -49q35 16 59.5 33.5t49.5 17.5q41 0 41 -35q0 -68 -44 -118.5t-118 -77.5q-27 -240 -72 -377q-84 -264 -221 -401 q-164 -160 -403 -162q-199 0 -324 264q-209 -264 -475 -264q-182 0 -289.5 91t-107.5 288q0 47 52 248.5t82.5 331.5t30.5 206q0 166 -83 166q-29 0 -52.5 -16.5t-47 -35t-48.5 -34.5t-56.5 -16t-31.5 55zM1075 1087.5q0 -165.5 29 -333.5q78 203 78 393q0 41 -13.5 73.5 t-40.5 32.5q-53 0 -53 -165.5zM1778 1303q0 -123 96 -179q8 78 8 105q0 57 -14 92q-16 49 -47 49q-43 0 -43 -67z" />
<glyph unicode="X" horiz-adv-x="1241" d="M-61 21.5q0 13.5 16 25.5t86 76q303 279 530 610q-39 197 -73 338q-59 -16 -125 -16q-150 0 -238 51q-113 63 -113 181q0 119 76 191t189.5 72t191.5 -37.5t139 -103.5q104 -111 177 -332q39 63 83 132t81.5 130.5t68.5 108.5l46.5 70.5t43.5 25.5h10q62 0 132 -22 q76 -24 75 -62q0 -119 -465 -684q20 -109 39 -208t41.5 -174t52 -120t66.5 -45t82 39t90 85t83 85t52 39q29 0 29 -69q0 -141 -145.5 -277.5t-307.5 -136.5q-170 0 -268 295q-29 88 -55 186q-59 -78 -127 -165t-146 -160q-176 -170 -323 -170q-45 0 -69.5 14t-24.5 27.5z M285 1320q0 -50 50 -91t134 -58q-63 199 -147 199q-37 0 -37 -50z" />
<glyph unicode="Y" horiz-adv-x="1325" d="M0 1278q0 113 104 184q100 74 239.5 74t209.5 -102q53 -76 53 -172.5t-22.5 -185.5t-48 -183t-48 -191.5t-22.5 -199.5q0 -123 108 -123q119 0 211 143q25 109 93.5 377t80.5 330q27 121 61 192.5t85 71.5q94 0 144 -42t50 -151.5t-73 -246.5q-12 -74 -26.5 -154 t-37 -209t-84.5 -438q242 98 296 161.5t85 63.5t31 -63.5t-38 -110.5t-119 -106.5t-296 -151.5q-106 -455 -389 -573q-78 -33 -164 -33q-184 0 -293 69q-124 77 -124 230q0 139 409 293q205 76 248 88q0 49 10 127q-127 -72 -277.5 -72t-226 91t-75.5 251q0 76 25.5 162 t57 175t57 175t25.5 160q0 137 -83 137q-29 0 -52.5 -16.5t-47 -35t-48.5 -34.5t-56.5 -16t-31.5 55zM274 -285q0 -51 61.5 -83.5t116.5 -33.5q3 -1 6 -1q52 0 81 26q82 68 139 287q-109 -39 -184.5 -63.5t-125 -45t-72 -40t-22.5 -46.5z" />
<glyph unicode="Z" horiz-adv-x="1175" d="M-10 196.5q0 104.5 76.5 157t197.5 52.5t232 -29q70 121 137 276q-104 -10 -200.5 -23.5t-156.5 -13.5q-27 0 -26 21q0 76 129 138.5t330 90.5q35 109 60.5 207t53.5 191q-89 30 -163 30h-5q-129 0 -281.5 -49t-180.5 -51q-61 0 -62 45q0 68 164 158q178 94 393 96 q344 0 449 -104q29 -29 28 -68q0 -152 -129 -451h119q45 0 45 -41q0 -12 -10 -42.5t-19 -63.5q-16 -68 -69 -68q-43 0 -162 11q-115 -223 -225 -381q59 -31 118.5 -53.5t127 -22.5t117.5 43t94.5 94t79 94t57.5 43q31 0 30 -69q0 -145 -135 -281.5t-330 -138.5 q-86 0 -163.5 32.5t-147.5 73.5l-8 -6q-121 -129 -319 -129q-127 0 -186.5 63.5t-59.5 168zM188 182q0 -31 22.5 -44t47.5 -13q45 0 123 84q-70 35 -119 35q-29 0 -51.5 -15.5t-22.5 -46.5z" />
<glyph unicode="[" horiz-adv-x="686" d="M102 -451v2169h502v-119h-362v-1931h362v-119h-502z" />
<glyph unicode="\" horiz-adv-x="995" d="M246 1372q0 47 41 109q41 57 67 57q14 0 21 -16l522 -1446q6 -18 6 -37q0 -39 -37 -93.5t-78 -56.5q-10 0 -12 7q-31 90 -51 151q-63 205 -129 376t-141 363q-82 201 -145.5 380.5t-63.5 205.5z" />
<glyph unicode="]" horiz-adv-x="686" d="M102 -332h363v1931h-363v119h502v-2169h-502v119z" />
<glyph unicode="^" horiz-adv-x="1064" d="M154 743l358 517h41l358 -517l-102 -71l-281 401l-276 -397z" />
<glyph unicode="_" horiz-adv-x="901" d="M0 -160h901v-119h-901v119z" />
<glyph unicode="`" horiz-adv-x="1024" d="M291 1511q0 49 15.5 75t87 26t108.5 -37q14 -14 16 -37q21 -233 191 -346q25 -16 24 -41q0 -16 -56 -15t-128 23.5t-129 69.5q-129 106 -129 282z" />
<glyph unicode="a" d="M51 293q0 348 232 549q98 84 183 110.5t179 26.5t154 -33q29 59 65 60q72 0 136.5 -62.5t64.5 -118.5q-29 -68 -84 -161q-16 -94 -16 -264.5t43 -170.5q53 0 258 213q37 41 53 41q37 0 37 -94q0 -51 -43 -123.5t-111.5 -133t-152.5 -99.5t-164 -39q-109 0 -146 190 q-53 -88 -139 -144t-230.5 -56t-232.5 90q-86 88 -86 213v6zM352 360q0 -157 116 -157h1q125 2 207 133q29 45 47 110q0 229 41 394q-166 -33 -289 -160t-123 -320z" />
<glyph unicode="b" horiz-adv-x="1058" d="M109 1120q37 0 84 -17.5t96 -27.5q168 317 381 416q72 33 143 35q141 0 216 -68.5t75 -167.5q0 -176 -191 -272q-156 -78 -424 -96q-96 -238 -96 -510q0 -203 94 -236q34 -12 59 -12q24 0 40 11q32 22 50.5 57.5t19.5 105.5v3q0 68 -38 115q-40 48 -77 89q18 68 53 112 q66 88 113 88t76.5 -32.5t48 -81.5t29.5 -106.5t25.5 -106.5t36 -82t57.5 -33t64.5 27.5t51 60.5t41 60.5t38 27.5t39 -32.5t19.5 -61.5q-1 -66 -65 -156q-64 -89 -162 -89h-2q-100 1 -156 42q-35 -86 -119 -143t-238.5 -57t-265.5 79q-133 96 -133 299q0 290 141 603 q-151 66 -151 126q0 34 27 31zM543 1038q223 39 305 138q29 36 31 77q-2 72 -52.5 72t-130.5 -75.5t-153 -211.5z" />
<glyph unicode="c" horiz-adv-x="747" d="M41 302.5q0 152.5 48 276t127 214t179.5 140.5t190.5 50q157 0 157 -123q0 -74 -29.5 -117t-60.5 -43q-41 0 -71.5 29t-67.5 30h-2q-36 0 -68 -36q-34 -37 -57 -94q-45 -115 -45 -269q2 -74 68 -110q44 -25 106 -26h3q60 0 115 40q56 41 103 89t83 89t54 41 q37 0 37 -62.5t-31.5 -134t-96 -138t-165 -113.5t-236.5 -47t-238.5 81t-102.5 233.5z" />
<glyph unicode="d" d="M51 293q0 348 232 549q160 137 331 137q78 0 123 -12l47 -13q84 395 195 529q37 45 74 45q59 0 110 -82q45 -68 45 -117t-14 -96t-35.5 -87t-48.5 -78t-53 -77q-59 -221 -88 -495q-8 -78 -8 -125q0 -141 47 -142q53 0 258 213q37 41 53 41q37 0 37 -94q0 -51 -43 -123.5 t-111.5 -133t-152.5 -99.5t-164 -39q-113 0 -148 184q-122 -194 -362 -194h-2q-147 0 -235 90q-87 88 -87 213v6zM352 360q0 -157 116 -157h1q70 0 140.5 53t109.5 178q4 184 43 406q-164 -33 -287 -160t-123 -320z" />
<glyph unicode="e" horiz-adv-x="856" d="M41 340q0 115 45 238.5t120 214t173 140.5t209.5 50t172 -55.5t60.5 -143.5t-44 -144t-113.5 -94t-154.5 -67.5t-167 -66.5v-52q2 -74 61.5 -104.5t135.5 -32.5q160 0 309 127q55 47 90 87t53 40q29 0 29 -57.5t-31 -128t-102 -137.5q-176 -166 -484 -166 q-244 0 -331 176q-31 61 -31 176zM356 553q43 29 81 51.5t67 42.5q61 45 63 103q0 51 -63 51q-106 0 -148 -248z" />
<glyph unicode="f" horiz-adv-x="854" d="M10 -371q0 494 142 994q45 160 102 299q-154 67 -154 120q0 37 27 37q41 0 84 -17.5t92 -27.5q164 350 377 457q74 37 147 37q137 -2 185.5 -65.5t48.5 -164.5q-2 -190 -164 -299.5t-395 -121.5q-59 -158 -92 -336q78 30 196 30h8q16 -129 57.5 -184t91.5 -55t84 24.5 t59.5 55t43 55.5t33.5 25q35 0 35 -62q0 -123 -61.5 -204t-188.5 -81q-199 0 -283 105q45 -451 45 -537q0 -154 -96 -219q-80 -55 -204 -55t-172 56t-48 134zM258 -326q0 -77 46 -77h1q25 0 45.5 37.5t20.5 80.5q0 141 -39 435q-51 -211 -70 -420q-4 -45 -4 -56zM555 1010 q150 66 197 100q96 68 96 162q0 53 -37 53q-41 0 -111.5 -78t-144.5 -237z" />
<glyph unicode="g" horiz-adv-x="1173" d="M51 293q0 348 232 549q160 137 331 137q59 0 128 -14.5t104 -32.5q29 90 92 90q57 -2 108.5 -81t51.5 -122q-4 -84 -51.5 -267t-133.5 -476q135 104 267 272q45 57 76.5 93t52.5 36q29 0 28 -65q0 -129 -144 -301t-353 -269q-25 -82 -53.5 -155.5t-73.5 -128.5 q-98 -119 -299 -119q-135 0 -230.5 77.5t-95.5 194.5q0 63 42 100t115.5 60t173 39t212.5 41q10 35 17 68.5t16 68.5q-113 -104 -276 -104t-251 90q-86 88 -86 213v6zM276 -315q0 -37 46 -64q42 -24 83 -24h9h1q76 0 152 165q-74 -14 -129 -22t-91 -14.5t-53.5 -14.5 t-17.5 -26zM352 360q0 -157 116 -157h1q66 0 133.5 49t108.5 160q31 143 64.5 264t45.5 168q-172 -23 -320.5 -154t-148.5 -330z" />
<glyph unicode="h" horiz-adv-x="1132" d="M92 184q0 309 45 537q70 352 277 754q28 54 82 54h2q55 -1 90 -77q34 -74 34 -124q0 -51 -16 -102q-16 -48 -39.5 -94.5t-53.5 -94.5t-58 -103l-31 -148q80 133 215 179q49 16 109 16q139 0 210.5 -62.5t71.5 -176t-29.5 -230.5t-43 -167t-13.5 -83t23 -33q31 0 75.5 39 t90 85t83 85t52.5 39q29 0 28 -69q0 -143 -141 -277q-238 -139 -303 -139q-6 0 -8 2q-164 0 -164 262q0 113 21.5 207t31.5 137t10 88q0 74 -87 74t-171 -134t-104 -274l8 -94t4 -92q0 -109 -71 -148q-33 -18 -63 -34.5t-68.5 -16.5t-68.5 52.5t-30 162.5z" />
<glyph unicode="i" horiz-adv-x="595" d="M102 377q0 209 52 379q80 262 180 262q59 0 94 -80q27 -57 27 -113v-8q0 -82 -49 -289q-48 -182 -48 -225q0 -41 22 -57t51.5 -16.5t74.5 38.5t90 85t83 85t52 39q29 0 29 -69q0 -144 -144 -280q-142 -135 -304 -134h-5q-205 0 -205 383zM336 1360q0 94 29.5 156.5 t56.5 92t61 29.5q57 0 104.5 -85t47.5 -142q0 -106 -75 -166.5t-169 -60.5q-55 82 -55 176z" />
<glyph unicode="j" horiz-adv-x="573" d="M-512 -291q0 115 160 189q74 33 169 62.5t203 64.5q20 109 37 208q18 127 123 492q49 160 78 240q25 56 78 56h2q55 -1 106.5 -80t51.5 -118q0 -57 -45 -248.5t-109 -404.5q147 96 326 281q27 29 41 26q29 0 28 -63q0 -119 -135 -261.5t-338 -232.5l-53 -166 q-51 -156 -125 -225q-96 -90 -252 -90t-251 77.5t-95 192.5zM-324 -313q0 -39 50 -68q58 -22 88 -22h2h1q84 0 150 210q-74 -27 -127 -44t-108.5 -35.5t-55.5 -40.5zM344 1360q0 102 49 182t137 80q127 0 172 -96q-6 -121 -98 -238q-90 -114 -201 -114h-6q-53 84 -53 186z " />
<glyph unicode="k" horiz-adv-x="1044" d="M92 168q0 287 67.5 600t132 472t100.5 212t56.5 65.5t46 12.5t54.5 -25.5t61.5 -78t33.5 -102.5v-5q0 -47 -16 -93q-18 -48 -46.5 -94.5t-63.5 -94.5t-69 -103l-21 -172q72 150 211 201q49 18 115 18q131 0 200.5 -62.5t69.5 -183.5t-121 -205q-118 -82 -238 -81h-6 q55 -219 187 -220q63 0 114.5 39t92.5 85t71.5 85t57 39t26.5 -69q0 -144 -135 -280q-134 -135 -300 -135h-2q-167 1 -298 294q-37 82 -70 166l-14 -281q0 -39 -4 -77t-35 -62q-80 -63 -162 -64q-96 0 -96 199zM422 504q213 12 291 114q24 33 24 70q0 74 -84 74t-182 -162 q-29 -47 -49 -96z" />
<glyph unicode="l" horiz-adv-x="778" d="M82 408.5q0 117.5 20 250.5q41 266 158 492q59 115 133 197q160 178 357 178h4q88 0 138 -48t50 -138.5t-53 -181.5t-136 -188.5t-183.5 -204t-196.5 -230.5v-82q0 -115 49 -168.5t115 -53.5q176 0 311 175q54 71 83 71h1q29 0 29 -69.5t-38 -142t-99.5 -133 t-141.5 -99.5t-164 -39h-5q-289 0 -394 219q-37 78 -37 195.5zM399 791q70 106 128.5 177.5t101.5 125t67.5 96.5t24.5 89t-33 46q-72 0 -159 -147.5t-130 -386.5z" />
<glyph unicode="m" horiz-adv-x="1574" d="M92 184q0 291 23 420q31 190 139 361q37 57 80 57q68 0 125 -111q16 -29 24 -53q98 123 232 123q88 0 157.5 -58.5t69.5 -146.5v-22q124 155 303 155h2q111 0 168.5 -57t57.5 -141t-12.5 -151.5t-28 -127t-27.5 -105.5t-12 -72t16 -26q31 0 76 39t90 85t83 85t52 39 q29 0 29 -69q0 -143 -144.5 -278.5t-308.5 -135.5q-147 0 -147 268q0 68 22.5 187t22.5 174q0 67 -76 67h-2q-53 0 -118.5 -103.5t-94.5 -221.5v-5q0 -70 21.5 -143.5t21.5 -101.5q0 -70 -174 -138q-27 -10 -47 -10q-51 0 -70.5 53.5t-19.5 144.5t5 172t10 149.5t10 120.5 t5 85q0 70 -63.5 70t-147.5 -148.5t-84 -235.5t21.5 -161t21.5 -102q0 -70 -174 -138q-27 -10 -47 -10q-51 0 -70.5 53.5t-19.5 163.5z" />
<glyph unicode="n" horiz-adv-x="1099" d="M92 186q0 291 23 420q31 193 139 359q37 57 80 57q74 0 139 -141q96 100 238.5 100t214 -62.5t71.5 -176t-29.5 -230.5t-43 -167t-13.5 -83t23 -33q31 0 76 39t90 85t83 85t52 39q29 0 29 -69q0 -143 -142 -277q-238 -139 -303 -139q-6 0 -8 2q-164 0 -164 262 q0 113 21.5 207t32 137t10.5 88q0 74 -85 74t-162 -126t-104 -261v-15q0 -70 21.5 -143.5t21.5 -101.5q0 -70 -174 -138q-27 -10 -47 -10q-51 0 -70.5 53.5t-19.5 165.5z" />
<glyph unicode="o" horiz-adv-x="1112" d="M51 387v6q-1 240 153 414q156 176 408 176q115 0 185 -29q121 -49 121 -92q0 -33 -169 -34t-283 -116.5t-114 -291.5q0 -92 54.5 -154.5t153.5 -62.5t165 41q-145 98 -145 284v5q0 95 70 174q72 81 186 83h6q110 0 158 -62q50 -64 49.5 -163.5t-48.5 -210.5h13 q90 2 155 64q25 25 42.5 43t35.5 18q29 0 29 -67q0 -125 -74 -187.5t-163 -62.5t-150 12q-162 -190 -388.5 -190t-338.5 116q-111 113 -111 281v6zM817 547q0 -82 53 -135q35 74 35 143.5t-45 69.5q-18 0 -30.5 -27t-12.5 -51z" />
<glyph unicode="p" horiz-adv-x="1126" d="M-82 -352q0 201 67.5 563t233.5 754q25 57 87.5 57t119.5 -111q17 -28 23 -53q106 121 272 121q238 0 301 -193q18 -57 18 -127q0 -156 -101 -307t-245 -205h25q150 0 303 111q98 70 154.5 144.5t85.5 74.5t28 -65q0 -115 -98 -232q-147 -168 -377 -196 q-100 -11 -164 -11q-44 0 -71 5q-70 12 -107 30q-80 41 -80 123q0 45 19 82q162 0 245.5 123t83.5 307q0 45 -32.5 81t-87 36t-118 -47t-101 -118t-68.5 -139.5t-49 -172.5q-33 -188 -75 -476t-52.5 -309.5t-31 -40t-42.5 -18.5q-41 0 -68 24q-74 63 -86 97t-12 88z" />
<glyph unicode="q" horiz-adv-x="1173" d="M51 293q0 348 232 549q160 137 331 137q115 0 197 -37q23 -10 29 -18l18 41q25 56 79 56h2q56 -1 107 -80q51 -77 51 -137t-23 -123q-21 -60 -49 -118.5t-55.5 -120t-41.5 -139.5l-13 -70q25 -6 60 -6q111 0 250 179q57 72 84 72q28 0 28 -64q0 -111 -88 -226 q-94 -114 -225 -163q53 -168 53 -283t-24 -166q-66 -137 -275 -137q-125 0 -173 56t-48 126q0 195 37 416q-88 -53 -228.5 -53t-228.5 90q-86 88 -86 213v6zM352 360q0 -157 116 -157h1q98 0 172 86q59 262 168 555q-180 -25 -305 -142q-152 -141 -152 -342zM805 -315 q0 -88 47 -88q25 0 45.5 37.5t20.5 101.5q-1 152 -56 287q-57 -250 -57 -338z" />
<glyph unicode="r" horiz-adv-x="935" d="M92 176q0 215 21.5 337t85.5 247q-94 90 -95 155q0 137 148 138q76 0 133 -80q41 -55 59 -129q29 -10 72 -10q59 0 137 38l54 27q25 12 43 12q59 0 118 -174q-18 -80 -39.5 -153.5t-50 -178t-29.5 -140.5t21 -36q31 0 76 39t90 85t83 85t52 39q29 0 29 -69 q0 -140 -124 -278q-122 -136 -279 -136h-5q-94 0 -141 75.5t-49 184.5q0 215 96 408q-46 -18 -102 -18q-6 0 -12 -1q-47 0 -68 4q-18 -78 -37 -156.5t-19 -146.5l14 -250q0 -49 -52 -88t-140 -39q-51 0 -70.5 53.5t-19.5 155.5z" />
<glyph unicode="s" horiz-adv-x="821" d="M-41 234.5q0 97.5 48 177.5t104 80q33 0 47 -24t53 -136q14 -41 47 -78q76 -84 240 -84q-25 78 -79 134t-107.5 109.5t-94.5 114t-41 142.5q0 147 111 239q103 82 241 83h6q134 0 200 -51q68 -52 67.5 -149.5t-59 -166t-142.5 -97.5q59 -61 107.5 -124.5t48.5 -133.5 q0 -137 -108.5 -211.5t-302 -74.5t-290 76.5t-96.5 174zM424 797q0 -79 96 -185q82 88 82 142q0 25 -17.5 44t-50 19t-62.5 -8t-48 -12z" />
<glyph unicode="t" horiz-adv-x="649" d="M41 817q0 49 9 81t44 73h49q29 0 62 2q98 315 201 315q82 -2 114 -104q8 -29 19 -62l-84 -147q143 -4 181 -4t41 -7.5t3 -21.5q0 -37 -18 -92q-17 -53 -37 -53h-2l-205 10q-43 -250 -43 -414t47 -164q39 0 141.5 64.5t147.5 124t73 59.5q29 0 29 -69.5t-49 -142 t-124 -133t-166 -99.5t-158.5 -39t-103.5 31.5t-59.5 86t-33.5 127t-10 203.5t49 355h-92q-25 0 -25 20z" />
<glyph unicode="u" horiz-adv-x="1091" d="M41 233q0 53 15.5 98.5t49.5 110.5l60 504q63 49 182 49q94 0 107 -123q3 -34 3 -65q0 -61 -12 -114q-20 -79 -53 -198.5t-33 -211.5q0 -74 93 -74q100 0 174 176q57 135 78 301q-2 16 -3.5 42t-2.5 50.5t-1 48.5v37q0 137 213 137q53 0 66.5 -34.5t13.5 -106.5 q0 -100 -45 -311q-43 -202 -43 -278v-7q0 -35 23 -35q31 0 76 39t90 85t82.5 85t52.5 39q29 0 28 -69q0 -143 -141 -277q-238 -139 -301 -139q-6 0 -10 2q-78 0 -109.5 51t-40.5 129q-41 -76 -112.5 -130t-163.5 -54q-162 0 -249 61.5t-87 181.5z" />
<glyph unicode="v" horiz-adv-x="1032" d="M78 651q-8 62 -8 114q0 108 36 165q44 65 173 65h4q49 0 75.5 -29.5t26.5 -64.5q0 -137 -49 -311q4 -66 4 -127.5t8 -106.5q31 -82 78 -100q41 0 90 70.5t100 169.5q-24 90 -24 172v6q0 147 45 215q55 86 168 86t149 -86q14 -33 15 -74q0 -74 -37 -150.5t-119 -201.5 q37 -109 111 -109q90 2 155 64q25 25 42.5 43t35.5 18q29 0 29 -67q0 -127 -73 -185.5t-183 -58.5q-145 0 -232 127q-240 -311 -401 -311q-63 0 -124.5 180t-94.5 487z" />
<glyph unicode="w" horiz-adv-x="1546" d="M106 930q44 65 173 65h4q49 0 75.5 -29.5t26.5 -64.5q0 -137 -49 -311q4 -66 4 -127q4 -131 33 -180q20 -27 53 -27q63 0 158 90q-72 170 -72 307q0 281 264 281q90 0 150.5 -52.5t60.5 -129.5q0 -164 -182 -394q76 -90 123 -104q68 0 202 250q-24 88 -24 166v6 q0 145 45 213q55 86 183 86t145 -105q4 -31 4 -65q0 -131 -146 -363q51 -74 97 -88q94 0 159 64q25 23 42.5 42t35.5 19q29 0 29 -67q0 -125 -74 -184.5t-192.5 -59.5t-206.5 115q-106 -139 -176 -195q-127 -104 -199 -104q-35 0 -89 58t-108 153q-98 -92 -194 -151.5 t-162 -59.5q-119 0 -201 516q-28 170 -28 237q0 132 36 193zM717 646.5q0 -51.5 18 -114.5q68 104 68 167t-43 63q-29 0 -36 -32t-7 -83.5z" />
<glyph unicode="x" horiz-adv-x="1013" d="M156 102q131 158 256 320q-43 160 -80 205q-16 20 -37 18q-78 0 -113 43t-35 86q0 72 58.5 154t131.5 82t148.5 -79t135.5 -208l6 -21q27 33 57 68q111 137 131.5 176t44.5 39q52 -1 106 -23q53 -22 53 -60v-1q-1 -39 -24.5 -66.5t-66.5 -65.5t-104.5 -95.5 t-137.5 -153.5q53 -154 74 -196q47 -94 88 -95q31 0 76 39t90 85t83 85t52 39q29 0 29 -69q0 -143 -144.5 -278.5t-308.5 -135.5q-78 0 -138.5 62.5t-111.5 158.5q-59 -94 -109.5 -158.5t-80.5 -64.5q-59 0 -107 26q-46 25 -45 54q0 4 23 30z" />
<glyph unicode="y" horiz-adv-x="1095" d="M10 -289q0 66 44 105t121 64.5t179.5 45t218.5 47.5q29 124 39 177q-102 -141 -274 -142q-139 0 -222 58.5t-83 185.5q0 53 15 98t50 111l60 485q63 49 172 49q92 0 104 -123q4 -37 4 -87t-16 -105q-82 -283 -80 -379q0 -74 86 -74t127 55.5t70 137.5q53 227 99 374.5 t58 176.5q20 49 78 51q57 -2 108.5 -81t51.5 -122q-4 -143 -178 -723q133 104 264 256q45 53 75.5 89t49.5 36q29 0 29 -65q0 -129 -144.5 -301t-353.5 -269q-25 -82 -53.5 -155.5t-73.5 -128.5q-98 -119 -299 -119q-135 0 -230.5 77.5t-95.5 194.5zM199 -313q0 -39 46 -65 q43 -25 83 -25h6q96 0 174 167q-74 -14 -131.5 -21t-97.5 -13q-82 -12 -80 -43z" />
<glyph unicode="z" horiz-adv-x="958" d="M102 745q0 94 71 166t185 74q49 0 117 -32.5t108 -47t81 -14.5q241 0 241 -87q0 -50 -35 -163q-184 -305 -372 -432q90 -23 172 -23t152.5 45t123.5 100.5t89 100.5t59 45q29 0 29 -75q0 -79 -46 -157q-45 -77 -125 -136q-176 -131 -424 -132q-100 0 -173.5 26 t-105.5 48.5t-32 62.5t14 105q31 43 99.5 94.5t137.5 106.5t121 110.5t52 108.5q0 20 -96 20l-338 -18q-53 0 -79 32t-26 72z" />
<glyph unicode="{" horiz-adv-x="993" d="M-6 618.5q0 28.5 31 40.5q94 55 159.5 160t65.5 170q-2 82 -35 245t-33 239q0 141 104.5 203.5t275.5 62.5t315 -39q37 -10 38 -23q0 -35 -70.5 -65.5t-117.5 -30.5q-49 0 -122 15.5t-140 19.5q-6 -23 -6 -62q0 -55 32.5 -208.5t32.5 -221.5q0 -127 -86 -265t-198 -230 q240 -201 239 -357q0 -47 -25.5 -147t-38 -151.5t-12.5 -102.5q0 -137 64 -256q74 -141 186 -141q35 0 62.5 10t79 10t51.5 -29q0 -51 -105 -77q-223 -57 -360 10q-78 37 -135 102q-119 135 -119 332q0 47 23.5 141.5t35 142.5t11.5 100t-32 112.5t-70 115t-69.5 100.5 t-31.5 74.5z" />
<glyph unicode="|" horiz-adv-x="946" d="M360 1540q4 18 11.5 22.5t21.5 4.5q33 0 87.5 -44t54.5 -81q8 -209 8 -488l-4 -794l4 -285q0 -14 -31 -14q-51 0 -98 48t-47 85z" />
<glyph unicode="}" horiz-adv-x="993" d="M55 -580q0 35 71 66t112 31q274 0 274 106q0 72 -22.5 137.5t-33 105.5t-10.5 97q0 115 88.5 273.5t196.5 252.5q-240 213 -239 359q0 45 25.5 139t37.5 141.5t12 98.5t-16 123q-14 72 -47 133q-74 141 -187 141q-35 0 -62.5 -10t-78.5 -10t-51 28q0 51 104 78 q223 57 361 -10q78 -37 135 -103q119 -135 119 -331q0 -47 -23.5 -133t-35 -131.5t-11.5 -97.5t32 -105.5t69.5 -100.5t69.5 -88t32 -65.5t-31 -42.5q-86 -45 -153.5 -188.5t-67.5 -217.5q-2 -88 30.5 -241.5t32.5 -229.5q0 -141 -104 -203.5t-275 -62.5t-315 39 q-37 10 -39 22z" />
<glyph unicode="~" horiz-adv-x="1044" d="M102 553q29 84 91.5 116.5t131 32.5t113.5 -11t125 -35.5t131 -24.5t88 14t60 60l100 -43q-29 -84 -91.5 -117t-130 -33t-112.5 12.5t-128 37t-132 23.5t-86 -15.5t-59 -59.5z" />
<glyph unicode="&#xa1;" horiz-adv-x="1017" d="M82 -383q2 55 40 117.5t83 131t82 143.5t37 135.5t-10.5 114.5t-10.5 89q0 63 74 101q76 37 144.5 36.5t88 -34t19.5 -103.5q0 -170 -85.5 -429t-224.5 -394q-35 -35 -73 -35q-68 0 -116 48t-48 79zM334 756q41 104 123 172.5t178 68.5t96 -105.5t-68.5 -189.5 t-138.5 -84q-123 0 -190 138z" />
<glyph unicode="&#xa2;" horiz-adv-x="911" d="M41 594q0 147 51 271t134 214t186.5 140.5t210.5 50.5h8q16 61 34.5 133t45.5 162q4 16 26 16q39 0 75 -55.5t37 -94t-18.5 -87.5t-46.5 -115q123 -70 123 -180q0 -57 -29.5 -100.5t-61.5 -43.5t-124 60q-74 -223 -133 -449q84 25 197 143q41 45 71.5 78t46.5 33 q37 0 37 -91t-100 -212q-121 -145 -309 -182l-70 -303q-4 -18 -26.5 -18.5t-44 14t-38 37t-25.5 51t-9 73.5t33 140q-190 29 -256 186q-25 55 -25 129zM342 647q0 -78 80 -119q102 276 153 508q-20 10 -30 11q-86 0 -144.5 -125t-58.5 -275z" />
<glyph unicode="&#xa3;" horiz-adv-x="1431" d="M20 196.5q0 104.5 77 157t196 52.5q63 0 119 -7q0 170 14 293l-250 -12q-12 0 -12 22q0 55 43 104.5t96 49.5h148q96 504 372 645q92 47 201 47q324 0 324 -272q0 -76 -54.5 -164t-93.5 -88q-80 0 -80 221q0 102 -100 103q-213 0 -279 -492h445q25 0 24 -25 q0 -41 -51 -96t-86 -55q-102 0 -348 8q-8 -123 -8 -252v-18q-2 -33 -15 -111q72 -37 139.5 -67.5t166.5 -30.5q51 0 101 43t94 94t79 94t57 43q31 0 31 -69q0 -145 -135 -281.5t-330 -138.5q-137 0 -317 108q-129 -137 -322 -137q-127 0 -186.5 63.5t-59.5 168zM219 182 q2 -57 80 -57t98 90q-57 29 -94 29q-82 -1 -84 -62z" />
<glyph unicode="&#xa4;" horiz-adv-x="1286" d="M61 70l203 202q-98 123 -98 316.5t98 316.5l-203 205l89 90l208 -209q117 76 285 76t285 -76l209 209l88 -90l-203 -205q98 -123 98 -316.5t-98 -316.5l203 -202l-88 -90l-209 208q-117 -76 -285 -75q-168 0 -285 75l-208 -208zM305 589.5q0 -358.5 338 -358.5t338 361 q0 180 -87 268t-251 88q-338 0 -338 -358.5z" />
<glyph unicode="&#xa5;" horiz-adv-x="1333" d="M-61 1278q0 113 104 184q100 74 239.5 74t209.5 -102q53 -76 53 -177q0 -199 35.5 -305t130.5 -166q74 174 164 367t111.5 241t62.5 94t108 46q31 0 60 -70q8 -20 8 -54t-28 -120t-69 -196.5t-90 -239.5t-94 -264h303q25 0 25 -25q0 -41 -51 -96t-86 -55q-96 0 -244 6 l-21 -76h275q25 0 24 -25q0 -41 -50 -96t-82.5 -54t-61.5 1h-66q-37 0 -75 2q-16 -98 -17 -186q0 -57 -82 -58q-129 0 -176 50.5t-47 168.5q0 20 2 31q-31 2 -55 2h-37l-287 -12q-12 0 -12 22q0 55 43 104.5t96 49.5h285l26 82h-49l-286 -12q-12 0 -13 22q0 55 43 104.5 t97 49.5h192q-188 106 -250 250q-49 117 -49 348q0 137 -84 137q-29 0 -52.5 -16.5t-47 -35t-48 -34.5t-56 -16t-31.5 55z" />
<glyph unicode="&#xa6;" horiz-adv-x="946" d="M410 -94v809h127v-809h-127zM410 848v799h127v-799h-127z" />
<glyph unicode="&#xa7;" horiz-adv-x="1026" d="M41 -115q0 55 94 56q31 0 66 -7l78 -16q102 -25 116.5 -24.5t14.5 18.5q0 92 -37 160.5t-80 133t-80 131t-37 148.5q0 154 122 280t263 150q-16 31 -41 68q-100 164 -100 244q0 147 112.5 226t260.5 81q72 -2 118.5 -36t48 -62.5t-32.5 -33.5t-75 -12.5t-75 -23.5 t-34 -70.5t15 -103.5q29 -82 71 -143q117 -166 117 -312q-2 -170 -102.5 -274.5t-259.5 -153.5q80 -186 80 -280q0 -174 -103.5 -267.5t-261.5 -93.5q-109 0 -183.5 66.5t-74.5 150.5zM469 575q0 -41 20 -90q96 4 139.5 58.5t44.5 114t-13.5 90t-36.5 30.5 q-154 -92 -154 -203z" />
<glyph unicode="&#xa8;" horiz-adv-x="1024" d="M148.5 1321q-1.5 88 56 157.5t127.5 69.5q80 0 145 -145q-33 -78 -100.5 -124t-147 -46t-81 88zM559 1329q0 92 43 146.5t103 54.5q114 0 169 -68q-88 -229 -212 -229q-47 0 -75 29.5t-28 66.5z" />
<glyph unicode="&#xa9;" horiz-adv-x="1568" d="M82 745.5q0 143.5 63.5 260t171 196.5t246.5 121t294 41t323 -27q53 -8 53 -55q0 -31 -49 -65.5t-104.5 -34.5t-123 13t-157.5 13t-185.5 -27.5t-167.5 -84.5q-156 -125 -155.5 -338t134.5 -371t343 -160q100 0 194.5 38t163.5 108q156 152 158 381q-2 55 -26.5 177 t-24.5 170t11 71.5t49 23.5t69 -35q78 -92 101.5 -188t23.5 -218t-47 -254t-142 -233q-209 -219 -583 -219q-135 0 -251 56.5t-201 151.5t-133 220t-48 268.5zM512 621q0 188 120 320t263 132q94 0 94 -90q0 -41 -19.5 -69.5t-39.5 -28.5q-25 0 -46.5 20.5t-43.5 20.5 q-51 -4 -90 -85t-39 -182q2 -68 84 -86q20 -4 44.5 -4t63.5 27t71 59.5t55.5 59t33.5 26.5q25 0 24 -41q0 -90 -95 -188t-255 -98q-90 0 -157.5 52t-67.5 155z" />
<glyph unicode="&#xaa;" horiz-adv-x="899" d="M164 1138q0 79 22.5 149.5t66.5 129t106.5 96t136 37.5t118.5 -18q16 35 37 35q43 0 83 -38t38 -71q-16 -43 -49 -96q-10 -57 -10 -126t3 -100.5t26.5 -31.5t45 18.5t46 18.5t24.5 -19q0 -47 -63.5 -103t-129 -57t-87.5 111q-33 -53 -83.5 -86t-136.5 -33t-140 52.5 t-54 131.5zM347 1190.5q-1 -105.5 69 -105.5q43 0 86 33t65 111q0 135 25 239q-96 -18 -170 -95t-75 -182.5z" />
<glyph unicode="&#xab;" horiz-adv-x="1656" d="M205 455.5q0 13.5 45 68.5q125 164 291 291q209 156 385 156q55 0 55 -27q0 -18 -18.5 -30.5t-53.5 -40t-80 -66.5t-96 -84q-178 -154 -235 -223q61 -51 140 -116t196.5 -163t117.5 -110q0 -29 -70.5 -62t-112.5 -33t-67 13q-139 90 -264 204.5t-179 161.5t-54 60.5z M757.5 519q0.5 18 30.5 48q184 176 306.5 255t211.5 114t158.5 35t69.5 -27q0 -18 -21.5 -32.5t-87 -59.5t-200.5 -139.5t-178 -149.5q133 -96 378 -364q37 -39 58 -64l22 -26q0 -27 -41 -60t-100 -33q-16 0 -26.5 4.5t-20.5 8.5q-106 78 -259 219t-276 235q-25 18 -24.5 36 z" />
<glyph unicode="&#xac;" horiz-adv-x="901" d="M82 541v118h737v-358h-127v240h-610z" />
<glyph unicode="&#xad;" horiz-adv-x="802" d="M102 541v118h598v-118h-598z" />
<glyph unicode="&#xae;" horiz-adv-x="1568" d="M82 657q0 162 63.5 293t169.5 224q223 190 541 190q141 0 261 -26.5t157 -39t49 -23.5t12 -30q0 -35 -49 -69.5t-88 -34.5t-73.5 11t-110.5 33.5t-191 22.5q-225 0 -378.5 -156.5t-153.5 -372.5t133 -345t344 -127q100 0 194.5 42t163.5 116q156 162 158 389 q0 37 -24.5 95t-36 91t-11.5 70q0 84 54 84q31 0 68.5 -27t70.5 -72q82 -104 82 -233t-47 -264.5t-142 -239.5q-209 -229 -583 -229q-272 0 -452.5 178t-180.5 450zM485 469q0 137 80 334q37 94 78 127q20 16 47 14q33 0 33 -47t-8 -82t-18.5 -69.5t-20.5 -69.5t-12 -72 v-133q0 -45 -37 -75.5t-84 -30.5q-57 0 -58 104zM530 948q0 12 17.5 39t50.5 53q86 68 203 68q178 2 243 -104q25 -37 25 -110t-40 -123t-93 -73q6 -16 12 -43.5t15 -52.5q20 -61 61 -61q29 0 62.5 37.5t51 55t29.5 17.5q35 0 35 -57t-83 -125t-171 -70q-49 0 -73.5 27 t-38 69t-19.5 91t-18 94q-59 20 -60 72q0 25 22.5 40t51.5 15t45 -10q37 41 37 90q0 96 -109 96q-82 0 -143 -31l-43 -22q-18 -8 -39 -8q-31 0 -31 26z" />
<glyph unicode="&#xaf;" horiz-adv-x="1024" d="M25 1372q0 166 280 166h88l525 -6h57q25 0 24 -25q0 -41 -52 -102.5t-85 -61.5l-528 15l-297 -4q-12 0 -12 18z" />
<glyph unicode="&#xb0;" horiz-adv-x="774" d="M102 914q0 128 79 207t209 79t206 -74.5t76 -203.5t-79 -208t-209 -79t-206 75.5t-76 203.5zM242 920q0 -166 145 -166q66 0 105.5 44t39.5 122q0 162 -145 161q-66 0 -105.5 -41.5t-39.5 -119.5z" />
<glyph unicode="&#xb1;" horiz-adv-x="966" d="M102 0v119h762v-119h-762zM102 487v119h318v314h127v-314h317v-119h-317v-299h-127v299h-318z" />
<glyph unicode="&#xb2;" horiz-adv-x="710" d="M123 1013q0 48 35 73.5t86 25.5t86 -10q113 113 112 266q0 51 -51 51q-43 0 -71.5 -24.5t-42 -35.5t-29.5 -11q-33 0 -33 41q0 45 54.5 95t143.5 50t140 -40t51 -116q0 -154 -155 -331q37 -12 62.5 -12.5t42.5 12t32.5 25.5t27 25.5t23.5 12.5q33 0 32 -51t-55.5 -96 t-129 -46.5t-124.5 33.5q-49 -45 -114.5 -45t-94 30t-28.5 78z" />
<glyph unicode="&#xb3;" horiz-adv-x="712" d="M143 1040q0 41 37 41q20 0 63.5 -29.5t88.5 -29.5t68.5 28.5t23.5 55.5q0 43 -27 86h-22q-90 0 -90 57q0 35 30.5 46.5t48 11.5t29.5 -4q23 29 23 71q0 51 -56 51q-33 0 -61.5 -24.5t-44 -35.5t-33.5 -11q-33 0 -33 39q0 45 53.5 96t142.5 51t139 -40t50 -110.5 t-59 -140.5q76 -66 76 -153.5t-78 -139t-163 -51.5t-145.5 47t-60.5 88z" />
<glyph unicode="&#xb4;" horiz-adv-x="1024" d="M203 1165q2 35 63 54q12 4 48 12t82 46t80 87t59.5 104.5t52.5 104.5q12 25 54 36t83 11q96 0 96 -33q2 -23 -125 -219q-156 -242 -411 -242q-82 0 -82 39z" />
<glyph unicode="&#xb5;" horiz-adv-x="1050" d="M-78 -356q0 174 26.5 378.5t127.5 503.5l49 420q63 49 182 49q94 0 107 -123q10 -100 -9.5 -179t-52.5 -198.5t-33 -211.5q0 -74 93 -74q100 0 174 176q57 135 78 301q-2 16 -3.5 42t-2.5 50.5t-1 48.5v37q0 137 213 137q53 0 66.5 -34.5t13.5 -106.5q0 -100 -45 -311 t-43 -285q0 -35 23 -35q31 0 76 39t90 85t82.5 85t52.5 39q29 0 28 -69q0 -143 -141 -277q-238 -139 -301 -139q-6 0 -10 2q-78 0 -109.5 51t-40.5 129q-41 -76 -112.5 -130t-184.5 -54q-39 0 -75 4q-29 -182 -43.5 -292t-26.5 -168t-30.5 -76.5t-45.5 -18.5q-47 0 -97 44 t-62.5 77.5t-12.5 83.5z" />
<glyph unicode="&#xb6;" horiz-adv-x="1050" d="M41 900.5q0 191.5 127 277.5t391 86l164 -4h276v-119h-182v-1295h-127v1295h-160v-1295h-127v666q-186 23 -274 110t-88 278.5z" />
<glyph unicode="&#xb7;" horiz-adv-x="749" d="M205 602q0 92 39 135t133 43t131 -43t37 -135t-39 -134t-131 -42t-131 42t-39 134z" />
<glyph unicode="&#xb8;" horiz-adv-x="1024" d="M258 -371q0 39 82 60q20 4 47 4t43 -13.5t25.5 -33t16.5 -41t24 -39.5q35 35 58.5 82t23 83.5t-16.5 65.5q-49 -12 -95 -12t-46 25q0 8 4 18q12 29 21.5 87t10.5 86t41 44t81 16q66 0 65 -41q0 -47 -14 -122q66 0 101.5 -36t35.5 -91q0 -117 -96.5 -218.5t-216.5 -103.5 q-72 0 -133.5 54.5t-61.5 125.5z" />
<glyph unicode="&#xb9;" horiz-adv-x="583" d="M113 943q0 32 36.5 61.5t114.5 39.5q0 86 33 196t45 151q-70 -52 -113 -52q-29 0 -28.5 41t34 75t70.5 46t77 24.5t87 12.5q35 -39 35 -62.5t-10.5 -71.5t-35 -162t-34.5 -198h82q37 0 37 -32q0 -27 -17.5 -56.5t-50.5 -29.5l-84 2l-74 2q-61 0 -105 -9.5t-71.5 -9.5 t-27.5 32z" />
<glyph unicode="&#xba;" horiz-adv-x="876" d="M164 1184q0 160 92 265t244 105q66 0 124 -22.5t58 -48.5q0 -20 -100.5 -20.5t-169 -68t-68.5 -177.5q0 -53 33 -91.5t89 -38.5t93 19q-80 61 -80 167.5t94 151.5q29 14 79 14.5t80 -37.5t30 -95t-29 -125q31 8 53 30l33 33q8 8 22.5 8t14.5 -58t-45 -95t-109 -37h-20 t-20 2q-98 -109 -230.5 -108t-200 71t-67.5 156zM623 1294q-1 -61 26 -94q27 49 27 94t-27 45q-12 0 -19 -15t-7 -30z" />
<glyph unicode="&#xbb;" horiz-adv-x="1656" d="M205 43q0 18 21.5 32.5t86 59.5t199.5 139.5t180 149.5q-172 125 -438 428q-20 25 -21 27q0 27 41 59.5t101 32.5q16 0 26.5 -4t20.5 -9q106 -78 259 -219t275 -235q25 -18 25 -35.5t-31 -48.5q-195 -184 -311.5 -259t-205.5 -110t-158.5 -35t-69.5 27zM758 43 q0 18 18.5 30.5t53 40t79.5 66.5t98.5 84t131 117.5t102.5 105.5q-455 365 -455 391.5t71 59.5t113 33t66 -13q158 -106 273.5 -212.5t170 -153.5t54.5 -60.5t-44 -69.5t-124 -138t-170 -152q-305 -158 -375 -156h-8q-55 0 -55 27z" />
<glyph unicode="&#xbc;" horiz-adv-x="1431" d="M123 943q0 32 37 61.5t114 39.5q0 86 33 196t45 151q-69 -52 -112 -52q-29 0 -29 41t34 75t70.5 46t76.5 24.5t87 12.5q35 -39 35 -62.5t-10 -70.5q-59 -248 -70 -361h82q37 0 37 -32q0 -27 -17.5 -56.5t-50.5 -29.5l-84 2l-73 2q-61 0 -105.5 -9.5t-72 -9.5t-27.5 32z M209 26.5q0 30.5 6 49.5l809 1446q6 16 20 16q29 0 70 -57.5t40 -102.5t-20.5 -89t-53 -98t-76.5 -118q-203 -299 -410 -661.5t-258 -515.5q-4 -6 -21 -7q-33 0 -69.5 53.5t-36.5 84zM799 252q23 90 67 168q86 147 121 147t35 -50t-24.5 -104.5t-43.5 -117.5l107 8 q47 186 67 221q43 74 86 74q31 0 31 -47t-12 -109.5t-27 -140.5h82q41 0 41 -35q0 -25 -24.5 -55.5t-53.5 -30.5h-26q-20 0 -35 2q-10 -113 -10 -162q0 -41 -56.5 -40.5t-79 22t-22.5 70.5t12 110l-155 -14q-63 37 -80 84z" />
<glyph unicode="&#xbd;" horiz-adv-x="1427" d="M123 943q0 32 37 61.5t114 39.5q0 86 33 196t45 151q-69 -52 -112 -52q-29 0 -29 41t34 75t70.5 46t76.5 24.5t87 12.5q35 -39 35 -62.5t-10 -70.5q-59 -248 -70 -361h82q37 0 37 -32q0 -27 -17.5 -56.5t-50.5 -29.5l-84 2l-73 2q-61 0 -105.5 -9.5t-72 -9.5t-27.5 32z M209 26.5q0 30.5 6 49.5l809 1446q6 16 20 16q29 0 70 -57.5t40 -102.5t-20.5 -89t-53 -98t-76.5 -118q-203 -299 -410 -661.5t-258 -515.5q-4 -6 -21 -7q-33 0 -69.5 53.5t-36.5 84zM778 81q0 48 35 73.5t86 25.5t86 -10q113 113 113 266q0 51 -51 51q-43 0 -72 -24.5 t-42.5 -35.5t-29.5 -11q-33 0 -33 41q0 45 54.5 95t143.5 50t140.5 -40t51.5 -116q0 -154 -156 -331q37 -12 62.5 -12.5t43 12t32.5 26t26.5 25.5t23.5 12q33 0 32 -52t-55.5 -97t-129 -45t-123.5 34q-49 -45 -114.5 -45t-94.5 30t-29 78z" />
<glyph unicode="&#xbe;" horiz-adv-x="1431" d="M102 1040q0 41 37 41q20 0 63.5 -29.5t88.5 -29.5t68.5 28.5t23.5 55.5q0 43 -27 86h-22q-90 0 -90 57q0 35 30.5 46.5t48 11.5t29.5 -4q23 29 23 71q0 51 -56 51q-33 0 -61.5 -24.5t-44 -35.5t-33.5 -11q-33 0 -33 39q0 45 53.5 96t142.5 51t139 -40t50 -110.5 t-59 -140.5q76 -66 76 -153.5t-78 -139t-163 -51.5t-145.5 47t-60.5 88zM209 26.5q0 30.5 6 49.5l809 1446q6 16 20 16q29 0 70 -57.5t40 -102.5t-20.5 -89t-53 -98t-76.5 -118q-203 -299 -410 -661.5t-258 -515.5q-4 -6 -21 -7q-33 0 -69.5 53.5t-36.5 84zM799 252 q23 90 67 168q86 147 121 147t35 -50t-24.5 -104.5t-43.5 -117.5l107 8q47 186 67 221q43 74 86 74q31 0 31 -47t-12 -109.5t-27 -140.5h82q41 0 41 -35q0 -25 -24.5 -55.5t-53.5 -30.5h-26q-20 0 -35 2q-10 -113 -10 -162q0 -41 -56.5 -40.5t-79 22t-22.5 70.5t12 110 l-155 -14q-63 37 -80 84z" />
<glyph unicode="&#xbf;" horiz-adv-x="1171" d="M102 -149.5q0 165.5 39 258t98.5 146.5t127 85t127 60.5t98.5 71.5t39 122q0 12 18 12q41 0 85 -26.5t44 -69.5q0 -180 -92 -268q-39 -37 -85 -61.5t-85 -57.5q-92 -78 -92 -234q0 -94 53 -145t149.5 -51t153 30.5t92 66.5t61 66.5t68.5 30.5q27 0 27 -43t-30.5 -105.5 t-88.5 -115.5q-135 -127 -349 -127t-336 94.5t-122 260zM623 778q0 86 54 156t114.5 68.5t103.5 -51.5t43 -101q-2 -88 -73.5 -123t-156.5 -35t-85 86z" />
<glyph unicode="&#xc0;" horiz-adv-x="1423" d="M-41 616q0 61 100 125q102 63 277 97q193 489 471 653q102 61 217 61q205 -2 296 -110.5t92 -287.5t-109 -466q-41 -111 -76 -201t-35 -145t8 -84t39 -29q55 0 260 213q37 41 53 41q35 0 35 -94q0 -51 -43 -123.5t-111.5 -133t-152.5 -99.5t-164 -39q-121 0 -167 60.5 t-46 178t92 404.5q-283 12 -411 12h-29q-37 -227 -37 -477q0 -111 -84 -152q-39 -18 -74.5 -34.5t-76.5 -16.5q-102 0 -102.5 184.5t83.5 473.5q-90 -10 -158.5 -20.5t-107.5 -10.5t-39 20zM399 1997q-2 31 58.5 53.5t116 22.5t79.5 -31q78 -106 180.5 -164.5t237.5 -97.5 q41 -13 41 -27q0 -33 -121 -49q-29 -4 -69.5 -4t-132 18.5t-178.5 55t-149.5 92t-62.5 131.5zM600 854l465 -6q51 164 51 246q0 178 -133 178q-135 0 -232.5 -114t-150.5 -304z" />
<glyph unicode="&#xc1;" horiz-adv-x="1423" d="M-41 616q0 61 100 125q102 63 277 97q193 489 471 653q102 61 217 61q205 -2 296 -110.5t92 -287.5t-109 -466q-41 -111 -76 -201t-35 -145t8 -84t39 -29q55 0 260 213q37 41 53 41q35 0 35 -94q0 -51 -43 -123.5t-111.5 -133t-152.5 -99.5t-164 -39q-121 0 -167 60.5 t-46 178t92 404.5q-283 12 -411 12h-29q-37 -227 -37 -477q0 -111 -84 -152q-39 -18 -74.5 -34.5t-76.5 -16.5q-102 0 -102.5 184.5t83.5 473.5q-90 -10 -158.5 -20.5t-107.5 -10.5t-39 20zM600 854l465 -6q51 164 51 246q0 178 -133 178q-135 0 -232.5 -114t-150.5 -304z M987 1729q0 33 62 51q143 45 203.5 85t94 75.5t66.5 84.5q16 23 56 35.5t81 12.5q98 0 99 -33q0 -27 -45 -86q-109 -139 -223.5 -200.5t-311.5 -63.5q-82 0 -82 39z" />
<glyph unicode="&#xc2;" horiz-adv-x="1423" d="M-41 616q0 61 100 125q102 63 277 97q193 489 471 653q102 61 217 61q205 -2 296 -110.5t92 -287.5t-109 -466q-41 -111 -76 -201t-35 -145t8 -84t39 -29q55 0 260 213q37 41 53 41q35 0 35 -94q0 -51 -43 -123.5t-111.5 -133t-152.5 -99.5t-164 -39q-121 0 -167 60.5 t-46 178t92 404.5q-283 12 -411 12h-29q-37 -227 -37 -477q0 -111 -84 -152q-39 -18 -74.5 -34.5t-76.5 -16.5q-102 0 -102.5 184.5t83.5 473.5q-90 -10 -158.5 -20.5t-107.5 -10.5t-39 20zM600 854l465 -6q51 164 51 246q0 178 -133 178q-135 0 -232.5 -114t-150.5 -304z M633 1761q0 25 31.5 52.5t65.5 54t69 51.5q92 68 139 104q92 70 180 70q35 0 78 -25q137 -82 203.5 -134t150.5 -146q12 -12 13 -27q0 -33 -68 -66.5t-121 -33.5t-83.5 29.5t-61.5 60.5q-92 88 -193 152q-94 -74 -143 -117q-78 -70 -169 -70t-91 45z" />
<glyph unicode="&#xc3;" horiz-adv-x="1423" d="M-41 616q0 61 100 125q102 63 277 97q193 489 471 653q102 61 217 61q205 -2 296 -110.5t92 -287.5t-109 -466q-41 -111 -76 -201t-35 -145t8 -84t39 -29q55 0 260 213q37 41 53 41q35 0 35 -94q0 -51 -43 -123.5t-111.5 -133t-152.5 -99.5t-164 -39q-121 0 -167 60.5 t-46 178t92 404.5q-283 12 -411 12h-29q-37 -227 -37 -477q0 -111 -84 -152q-39 -18 -74.5 -34.5t-76.5 -16.5q-102 0 -102.5 184.5t83.5 473.5q-90 -10 -158.5 -20.5t-107.5 -10.5t-39 20zM575 1849q0 29 39 72q88 109 182.5 151t160 42t116.5 -35t96 -77t88 -77t76 -35 t47.5 12.5t35 28t48 28.5t83 13t55.5 -37q0 -12 -7 -16q-96 -201 -309 -201q-63 0 -112.5 33t-94.5 71t-90 70.5t-100 32.5q-37 0 -76 -67q-31 -43 -145 -56q-29 -4 -52 -4q-41 0 -41 51zM600 854l465 -6q51 164 51 246q0 178 -133 178q-135 0 -232.5 -114t-150.5 -304z" />
<glyph unicode="&#xc4;" horiz-adv-x="1423" d="M-41 616q0 61 100 125q102 63 277 97q193 489 471 653q102 61 217 61q205 -2 296 -110.5t92 -287.5t-109 -466q-41 -111 -76 -201t-35 -145t8 -84t39 -29q55 0 260 213q37 41 53 41q35 0 35 -94q0 -51 -43 -123.5t-111.5 -133t-152.5 -99.5t-164 -39q-121 0 -167 60.5 t-46 178t92 404.5q-283 12 -411 12h-29q-37 -227 -37 -477q0 -111 -84 -152q-39 -18 -74.5 -34.5t-76.5 -16.5q-102 0 -102.5 184.5t83.5 473.5q-90 -10 -158.5 -20.5t-107.5 -10.5t-39 20zM600 854l465 -6q51 164 51 246q0 178 -133 178q-135 0 -232.5 -114t-150.5 -304z M689 1822q-1 87 56.5 156.5t126.5 71.5q80 0 146 -145q-33 -78 -100.5 -124t-147.5 -46t-81 87zM1100 1831q0 92 43 146.5t102 54.5q115 0 170 -68q-88 -229 -213 -229q-47 0 -74.5 29.5t-27.5 66.5z" />
<glyph unicode="&#xc5;" horiz-adv-x="1423" d="M-41 616q0 61 100 125q102 63 277 97q152 377 352 565q74 70 160 106q-92 78 -92 199q0 156 159 211q47 16 101 16h22q18 6 51 6.5t88.5 -24.5t100.5 -62q106 -88 107 -187t-132 -171q158 -98 158 -338q2 -184 -108 -471q-41 -111 -76 -201t-35 -145t8 -84t39 -29 q55 0 260 213q37 41 53 41q35 0 35 -94q0 -51 -43 -123.5t-111.5 -133t-152.5 -99.5t-164 -39q-121 0 -167 60.5t-46 178t92 404.5q-283 12 -411 12h-29q-37 -227 -37 -477q0 -111 -84 -152q-39 -18 -74.5 -34.5t-76.5 -16.5q-102 0 -102.5 184.5t83.5 473.5 q-90 -10 -158.5 -20.5t-107.5 -10.5t-39 20zM600 854l465 -6q51 164 51 246q0 178 -133 178q-135 0 -232.5 -114t-150.5 -304zM956.5 1726q-0.5 -47 37.5 -96t106 -49q86 0 86 74q0 41 -41 79t-84 56q-8 -2 -36 -2t-54 8q-14 -23 -14.5 -70z" />
<glyph unicode="&#xc6;" horiz-adv-x="2068" d="M-41 616q0 61 100 125q102 63 277 97q193 489 471 653q102 61 199.5 60t158.5 -17l889 -10q55 0 55 -43q0 -12 -16 -44t-29 -69q-27 -74 -114 -74q-106 0 -280.5 2t-274.5 2q16 -70 16 -170t-53 -278q74 0 135 -1t109.5 1t85 2t76.5 -2t59.5 -10.5t19.5 -25.5t-16.5 -48 t-28.5 -64q-27 -68 -108 -67h-45l-363 4l-20 -55q-55 -209 -66 -383q283 12 404.5 12t187 20.5t104.5 45t64.5 45t52.5 20.5q47 0 47 -82q0 -285 -573 -285l-357 19q-57 -27 -170 -27q-51 0 -60 52.5t-9 144.5q0 172 106 459l6 18q-233 6 -317 6h-127q-37 -227 -37 -477 q0 -111 -84 -152q-39 -18 -74.5 -34.5t-76.5 -16.5q-102 0 -102.5 184.5t83.5 473.5q-90 -10 -158.5 -20.5t-107.5 -10.5t-39 20zM600 854l465 -2q51 164 51 243t-31.5 128t-101.5 49q-135 0 -232.5 -114t-150.5 -304z" />
<glyph unicode="&#xc7;" horiz-adv-x="1124" d="M123 510q0 305 147 580q49 90 111 165q-47 55 -74.5 116t-27.5 91q0 55 40 56q29 -2 66 -39l64 -62q25 -25 51 -41q203 172 437 172t304 -131q25 -49 25 -121q0 -109 -94.5 -182.5t-253 -73.5t-328.5 66q-145 -248 -146 -518q0 -375 299 -375q184 0 347 119q53 39 96 95 t72.5 56t29.5 -84q0 -162 -143.5 -274.5t-345.5 -134.5q-4 -47 -13 -92q66 0 102 -36t36 -91q0 -117 -96.5 -218.5t-217.5 -103.5q-74 0 -135 54.5t-59 125.5q2 39 84 60q20 4 45.5 4t42 -13.5t26 -33t16.5 -41t23 -39.5q35 35 58.5 82t23.5 83.5t-16 65.5q-49 -12 -95 -12 t-46 25q0 10 14 41.5t18 138.5q-233 23 -360 159t-127 361zM688 1233q104 -35 227 -35t123 68q0 80 -100 80q-137 0 -250 -113z" />
<glyph unicode="&#xc8;" horiz-adv-x="1083" d="M82 414q0 293 293 409q-150 104 -150 316q0 100 56 186q-51 57 -83 120.5t-32 96.5q0 57 41 57q29 0 70.5 -44t68.5 -70.5t55 -42.5q174 106 410 106t313 -131q29 -49 29 -121q0 -108 -94 -182t-248 -74t-287 99q-2 -8 -2 -17v-45q0 -37 23.5 -87t58.5 -83q31 6 84 6 q156 0 162 -86v-4q0 -104 -205 -104q-45 0 -98 16q-59 -41 -91 -102.5t-32 -177t91 -171t215 -55.5t201 40t134 87t93 87t52 40t26.5 -21.5t10.5 -55.5q0 -164 -181 -288t-433 -124q-393 0 -510 227q-41 80 -41 193zM158 1997q-2 31 58 53.5t115.5 22.5t80.5 -31 q78 -106 180 -164.5t237 -97.5q41 -13 41 -27q0 -33 -120 -49q-29 -4 -70 -4t-132 18.5t-178 55t-149.5 92t-62.5 131.5zM584 1266q111 -68 226.5 -68t115.5 68q0 80 -131 80t-211 -80z" />
<glyph unicode="&#xc9;" horiz-adv-x="1083" d="M82 414q0 293 293 409q-150 104 -150 316q0 100 56 186q-51 57 -83 120.5t-32 96.5q0 57 41 57q29 0 70.5 -44t68.5 -70.5t55 -42.5q174 106 410 106t313 -131q29 -49 29 -121q0 -109 -94 -182.5t-248 -73.5t-287 99q-2 -8 -2 -17v-45q0 -37 23.5 -87t58.5 -83q31 6 68 6 q178 0 178 -90q0 -104 -205 -104q-45 0 -98 16q-59 -41 -91 -102.5t-32 -177t91 -171t215 -55.5t201 40t134 87t93 87t52 40t26.5 -21.5t10.5 -55.5q0 -164 -181 -288t-433 -124q-393 0 -510 227q-41 80 -41 193zM584 1266q111 -68 226.5 -68t115.5 68q0 80 -131 80 t-211 -80zM745 1729q0 33 62 51q143 45 203.5 85t94.5 75.5t66 84.5q16 23 56.5 35.5t81.5 12.5q98 0 98 -33q0 -27 -45 -86q-109 -139 -223.5 -200.5t-311.5 -63.5q-82 0 -82 39z" />
<glyph unicode="&#xca;" horiz-adv-x="1083" d="M82 414q0 293 293 409q-150 104 -150 316q0 100 56 186q-51 57 -83 120.5t-32 96.5q0 57 41 57q29 0 70.5 -44t68.5 -70.5t55 -42.5q174 106 410 106t313 -131q29 -49 29 -121q0 -109 -94 -182.5t-248 -73.5t-287 99q-2 -8 -2 -17v-45q0 -37 23.5 -87t58.5 -83q31 6 68 6 q178 0 178 -90q0 -104 -205 -104q-45 0 -98 16q-59 -41 -91 -102.5t-32 -177t91 -171t215 -55.5t201 40t134 87t93 87t52 40t26.5 -21.5t10.5 -55.5q0 -164 -181 -288t-433 -124q-393 0 -510 227q-41 80 -41 193zM391 1761q0 25 32 52.5t65.5 54t68.5 51.5q92 68 139 104 q92 70 181 70q35 0 77 -25q137 -82 204 -134t151 -146q12 -12 12 -27q0 -33 -68 -67q-96 -33 -118 -33h-2q-53 0 -84 29.5t-62 60.5q-92 88 -192 152q-94 -74 -144 -117q-78 -70 -169 -70t-91 45zM584 1266q111 -68 226.5 -68t115.5 68q0 80 -131 80t-211 -80z" />
<glyph unicode="&#xcb;" horiz-adv-x="1083" d="M82 414q0 293 293 409q-150 104 -150 316q0 100 56 186q-51 57 -83 120.5t-32 96.5q0 57 41 57q29 0 70.5 -44t68.5 -70.5t55 -42.5q174 106 410 106t313 -131q29 -49 29 -121q0 -109 -94 -182.5t-248 -73.5t-287 99q-2 -8 -2 -17v-45q0 -37 23.5 -87t58.5 -83q31 6 68 6 q178 0 178 -90q0 -104 -205 -104q-45 0 -98 16q-59 -41 -91 -102.5t-32 -177t91 -171t215 -55.5t201 40t134 87t93 87t52 40t26.5 -21.5t10.5 -55.5q0 -164 -181 -288t-433 -124q-393 0 -510 227q-41 80 -41 193zM447.5 1822q-1.5 87 56 156.5t127.5 71.5q80 0 145 -145 q-33 -78 -100.5 -124t-147 -46t-81 87zM584 1266q111 -68 226.5 -68t115.5 68q0 80 -131 80t-211 -80zM858 1831q0 92 43 146.5t103 54.5q115 0 170 -68q-88 -229 -213 -229q-47 0 -75 29.5t-28 66.5z" />
<glyph unicode="&#xcc;" horiz-adv-x="671" d="M-35 1997q-2 31 58.5 53.5t116 22.5t79.5 -31q78 -106 180.5 -164.5t237.5 -97.5q41 -13 41 -27q0 -33 -121 -49q-29 -4 -70 -4t-132 18.5t-178 55t-149.5 92t-62.5 131.5zM133 209q2 184 101.5 589.5t187.5 602.5q23 51 63.5 97t108.5 46q29 0 48.5 -34.5t19.5 -80 t-16.5 -134.5t-41 -203.5t-55.5 -247.5q-111 -506 -111 -797q0 -57 -82 -57q-129 0 -176 50t-47 169z" />
<glyph unicode="&#xcd;" horiz-adv-x="671" d="M133 209q2 184 101.5 589.5t187.5 602.5q23 51 63.5 97t108.5 46q29 0 48.5 -34.5t19.5 -80t-16.5 -134.5t-41 -203.5t-55.5 -247.5q-111 -506 -111 -797q0 -57 -82 -57q-129 0 -176 50t-47 169zM553 1729q0 33 61 51q143 45 204 85t94.5 75.5t66.5 84.5q16 23 56 35.5 t81 12.5q98 0 98 -33q0 -27 -45 -86q-109 -139 -223.5 -200.5t-310.5 -63.5q-82 0 -82 39z" />
<glyph unicode="&#xce;" horiz-adv-x="671" d="M133 209q2 184 101.5 589.5t187.5 602.5q23 51 63.5 97t108.5 46q29 0 48.5 -34.5t19.5 -80t-16.5 -134.5t-41 -203.5t-55.5 -247.5q-111 -506 -111 -797q0 -57 -82 -57q-129 0 -176 50t-47 169zM199 1761q0 25 31.5 52.5t65.5 54t69 51.5q92 68 139 104q92 70 180 70 q35 0 78 -25q137 -82 203.5 -134t150.5 -146q12 -12 12 -27q0 -33 -67.5 -66.5t-120.5 -33.5t-84 29.5t-61 60.5q-92 88 -193 152q-94 -74 -143 -117q-78 -70 -169 -70t-91 45z" />
<glyph unicode="&#xcf;" horiz-adv-x="671" d="M133 209q2 184 101.5 589.5t187.5 602.5q23 51 63.5 97t108.5 46q29 0 48.5 -34.5t19.5 -80t-16.5 -134.5t-41 -203.5t-55.5 -247.5q-111 -506 -111 -797q0 -57 -82 -57q-129 0 -176 50t-47 169zM255 1822q-1 87 56.5 156.5t126.5 71.5q80 0 146 -145 q-33 -78 -100.5 -124t-147.5 -46t-81 87zM666 1831q0 92 43 146.5t102 54.5q115 0 170 -68q-88 -229 -213 -229q-47 0 -74.5 29.5t-27.5 66.5z" />
<glyph unicode="&#xd0;" horiz-adv-x="1525" d="M-20 354q0 25 32.5 25t202.5 -45q18 154 66 315l-246 -2q-12 1 -12 19q0 166 280 165h37q92 250 154 328q37 45 92 47q16 0 31.5 -34.5t15.5 -88t-45 -254.5l284 -4h43q25 0 25 -26q0 -41 -51 -101.5t-86 -60.5q-72 0 -256 12q-47 -223 -64 -383q135 -31 238.5 -30.5 t188.5 54.5t147 140q127 182 127 438q0 473 -375 473q-133 -2 -471 -118q-66 -23 -115 -23t-49 29q0 39 57 92q59 53 150 102q221 119 428 119q285 0 469 -153q217 -182 217 -553q0 -158 -49 -311.5t-149.5 -273.5t-254 -193.5t-362.5 -73.5q-84 0 -213 36q-14 -39 -74 -38 q-106 0 -144 35.5t-42 117.5q-98 55 -162.5 114.5t-64.5 104.5z" />
<glyph unicode="&#xd1;" horiz-adv-x="1415" d="M0 1278q0 113 104 184q100 74 244 74q201 0 225 -197q8 -57 7 -125v-14q78 150 187.5 245t254.5 95q201 0 291 -106q188 -227 -19 -750q-41 -106 -75.5 -196.5t-34.5 -151.5q0 -106 47 -107q51 0 178 127q33 33 70 80t57 47q41 0 42 -72.5t-42 -145t-111.5 -133 t-152.5 -99.5t-164 -39q-121 0 -167 60.5t-46 140t14 157.5q25 123 144 475q55 168 55 252t-32 133.5t-96.5 49.5t-125.5 -44t-115 -116q-96 -125 -170.5 -327t-97.5 -349q39 -188 39 -246q0 -119 -84 -160q-39 -18 -75 -34.5t-77 -16.5q-102 0 -102 195.5t109 765.5 q39 205 38 229q0 166 -83 166q-29 0 -52.5 -16.5t-47 -35t-48.5 -34.5t-56.5 -16t-31.5 55zM561 1849q0 29 39 72q88 109 182.5 151t160 42t116.5 -35t96 -77t88 -77t76 -35t47 12.5t34.5 28t48.5 28.5t83 13t55 -37q0 -12 -6 -16q-96 -201 -309 -201q-63 0 -112.5 33 t-94.5 71t-90 70.5t-101 32.5q-37 0 -75 -67q-29 -43 -144 -56q-28 -4 -51 -4q-37 0 -43 51z" />
<glyph unicode="&#xd2;" horiz-adv-x="1738" d="M143 612q0 180 58.5 348t166 297t261 207t345 78t322.5 -67.5t131 -143.5q0 -23 -61 -22q-23 0 -59.5 6t-137 18.5t-214 12.5t-206 -60.5t-155 -155t-96 -211t-33.5 -229.5q0 -205 94 -319.5t262 -114.5q303 0 465 215q49 66 80 145q-150 18 -229.5 111.5t-79.5 230 t75.5 216t203.5 79.5t197 -97t69 -245q0 -51 -5 -96q37 16 61.5 34.5t49.5 18.5q41 0 41 -34q0 -72 -48 -124.5t-128 -78.5q-61 -299 -261 -473t-517.5 -174t-495.5 192q-156 170 -156 436zM395 1997q-2 31 58.5 53.5t116 22.5t79.5 -31q78 -106 180.5 -164.5t237.5 -97.5 q41 -13 41 -27q0 -33 -121 -49q-29 -4 -69.5 -4t-132 18.5t-178.5 55t-149.5 92t-62.5 131.5zM1319 1004q0 -123 98 -179q6 55 6 115q0 133 -61 133q-43 0 -43 -69z" />
<glyph unicode="&#xd3;" horiz-adv-x="1738" d="M143 612q0 180 58.5 348t166 297t261 207t345 78t322.5 -67.5t131 -143.5q0 -23 -61 -22q-23 0 -59.5 6t-137 18.5t-214 12.5t-206 -60.5t-155 -155t-96 -211t-33.5 -229.5q0 -205 94 -319.5t262 -114.5q303 0 465 215q49 66 80 145q-150 18 -229.5 111.5t-79.5 230 t75.5 216t203.5 79.5t197 -97t69 -245q0 -51 -5 -96q37 16 61.5 34.5t49.5 18.5q41 0 41 -34q0 -72 -48 -124.5t-128 -78.5q-61 -299 -261 -473t-517.5 -174t-495.5 192q-156 170 -156 436zM983 1729q0 33 61 51q143 45 204 85t94.5 75.5t66.5 84.5q16 23 56 35.5t81 12.5 q98 0 99 -33q0 -27 -46 -86q-109 -139 -223 -200.5t-311 -63.5q-82 0 -82 39zM1319 1004q0 -123 98 -179q6 55 6 115q0 133 -61 133q-43 0 -43 -69z" />
<glyph unicode="&#xd4;" horiz-adv-x="1738" d="M143 612q0 180 58.5 348t166 297t261 207t345 78t322.5 -67.5t131 -143.5q0 -23 -61 -22q-23 0 -59.5 6t-137 18.5t-214 12.5t-206 -60.5t-155 -155t-96 -211t-33.5 -229.5q0 -205 94 -319.5t262 -114.5q303 0 465 215q49 66 80 145q-150 18 -229.5 111.5t-79.5 230 t75.5 216t203.5 79.5t197 -97t69 -245q0 -51 -5 -96q37 16 61.5 34.5t49.5 18.5q41 0 41 -34q0 -72 -48 -124.5t-128 -78.5q-61 -299 -261 -473t-517.5 -174t-495.5 192q-156 170 -156 436zM629 1761q0 25 31.5 52.5t65.5 54t69 51.5q92 68 139 104q92 70 180 70 q35 0 78 -25q137 -82 203.5 -134t150.5 -146q12 -12 13 -27q0 -33 -68 -66.5t-121 -33.5t-84 29.5t-61 60.5q-92 88 -193 152q-94 -74 -143 -117q-78 -70 -169 -70t-91 45zM1319 1004q0 -123 98 -179q6 55 6 115q0 133 -61 133q-43 0 -43 -69z" />
<glyph unicode="&#xd5;" horiz-adv-x="1738" d="M143 612q0 180 58.5 348t166 297t261 207t345 78t322.5 -67.5t131 -143.5q0 -23 -61 -22q-23 0 -59.5 6t-137 18.5t-214 12.5t-206 -60.5t-155 -155t-96 -211t-33.5 -229.5q0 -205 94 -319.5t262 -114.5q303 0 465 215q49 66 80 145q-150 18 -229.5 111.5t-79.5 230 t75.5 216t203.5 79.5t197 -97t69 -245q0 -51 -5 -96q37 16 61.5 34.5t49.5 18.5q41 0 41 -34q0 -72 -48 -124.5t-128 -78.5q-61 -299 -261 -473t-517.5 -174t-495.5 192q-156 170 -156 436zM571 1849q0 29 39 72q88 109 182.5 151t160 42t116.5 -35t96 -77t88 -77t76 -35 t47.5 12.5t35 28t48 28.5t82.5 13t55 -37q0 -12 -6 -16q-96 -201 -309 -201q-63 0 -112.5 33t-94.5 71t-90 70.5t-100 32.5q-37 0 -76 -67q-31 -43 -145 -56q-29 -4 -52 -4q-41 0 -41 51zM1319 1004q0 -123 98 -179q6 55 6 115q0 133 -61 133q-43 0 -43 -69z" />
<glyph unicode="&#xd6;" horiz-adv-x="1738" d="M143 612q0 180 58.5 348t166 297t261 207t345 78t322.5 -67.5t131 -143.5q0 -23 -61 -22q-23 0 -59.5 6t-137 18.5t-214 12.5t-206 -60.5t-155 -155t-96 -211t-33.5 -229.5q0 -205 94 -319.5t262 -114.5q303 0 465 215q49 66 80 145q-150 18 -229.5 111.5t-79.5 230 t75.5 216t203.5 79.5t197 -97t69 -245q0 -51 -5 -96q37 16 61.5 34.5t49.5 18.5q41 0 41 -34q0 -72 -48 -124.5t-128 -78.5q-61 -299 -261 -473t-517.5 -174t-495.5 192q-156 170 -156 436zM685 1822q-1 87 56.5 156.5t126.5 71.5q80 0 146 -145q-33 -78 -100.5 -124 t-147.5 -46t-81 87zM1096 1831q0 92 43 146.5t102 54.5q115 0 170 -68q-88 -229 -213 -229q-47 0 -74.5 29.5t-27.5 66.5zM1319 1004q0 -123 98 -179q6 55 6 115q0 133 -61 133q-43 0 -43 -69z" />
<glyph unicode="&#xd7;" horiz-adv-x="1028" d="M123 238l305 305l-291 293l88 88l291 -293l291 293l84 -84l-291 -291l305 -305l-88 -88l-305 305l-305 -307z" />
<glyph unicode="&#xd8;" horiz-adv-x="1734" d="M41 18q0 49 22.5 74t59.5 58.5t108 109.5q-92 152 -92 342.5t58.5 358t166 296.5t261 207t334 78t350.5 -80q27 29 49 54.5t39.5 44t28 32t22.5 13.5q23 0 36 -35t13 -66v-43q0 -33 -47 -96q78 -73 78 -149q0 -37 -45 -37q-20 0 -54 20.5t-79 46.5l-60 -65 q-29 -33 -82 -88.5t-119.5 -125t-142.5 -148.5t-149.5 -155.5t-141 -146t-118.5 -123.5q94 -139 280 -139q330 2 486 244q49 74 75 159q-106 78 -106 232q0 70 48 125t112 55q166 0 165 -201v-26q0 -12 -2 -29q35 16 59.5 34.5t49.5 18.5q41 0 41 -34q0 -86 -46 -144.5 t-126 -73.5q-63 -297 -263 -464.5t-502 -167.5t-478 157q-180 -240 -230 -239q-59 0 -59 116zM461 701.5q0 -101.5 18 -175.5l35 41q51 59 205.5 232.5t262.5 295.5t202 226q-8 0 -51 12.5t-169 12.5t-218.5 -60.5t-155 -155t-96 -211t-33.5 -218z" />
<glyph unicode="&#xd9;" horiz-adv-x="1415" d="M0 1278q0 113 104 184q100 74 239.5 74t209.5 -115q53 -84 53 -189.5t-22.5 -204.5t-48 -203.5t-48 -212t-22.5 -176t6 -91.5q29 -90 139 -90q143 0 250 180q90 152 127 369l12 92l-8 428q0 94 82 155.5t172 59.5q37 0 47.5 -54t10.5 -120t-8.5 -126t-19.5 -139t-26 -169 q-53 -371 -51 -514q0 -186 51 -187q31 0 76 39t90 85t83 85t52 39q29 0 29 -69q0 -143 -144.5 -278.5t-308.5 -135.5q-102 -2 -139 88q-29 72 -29 229q-137 -317 -407 -317q-182 0 -289.5 91t-107.5 288q0 47 52 248.5t82.5 331.5t30.5 206q0 166 -83 166q-29 0 -52.5 -16.5 t-47 -35t-48.5 -34.5t-56.5 -16t-31.5 55zM178 1997q-2 31 58.5 53.5t116 22.5t79.5 -31q78 -106 180.5 -164.5t237.5 -97.5q41 -13 41 -27q0 -33 -121 -49q-29 -4 -70 -4t-132 18.5t-178 55t-149.5 92t-62.5 131.5z" />
<glyph unicode="&#xda;" horiz-adv-x="1415" d="M0 1278q0 113 104 184q100 74 239.5 74t209.5 -115q53 -84 53 -189.5t-22.5 -204.5t-48 -203.5t-48 -212t-22.5 -176t6 -91.5q29 -90 139 -90q143 0 250 180q90 152 127 369l12 92l-8 428q0 94 82 155.5t172 59.5q37 0 47.5 -54t10.5 -120t-8.5 -126t-19.5 -139t-26 -169 q-53 -371 -51 -514q0 -186 51 -187q31 0 76 39t90 85t83 85t52 39q29 0 29 -69q0 -143 -144.5 -278.5t-308.5 -135.5q-102 -2 -139 88q-29 72 -29 229q-137 -317 -407 -317q-182 0 -289.5 91t-107.5 288q0 47 52 248.5t82.5 331.5t30.5 206q0 166 -83 166q-29 0 -52.5 -16.5 t-47 -35t-48.5 -34.5t-56.5 -16t-31.5 55zM766 1729q0 33 61 51q143 45 204 85t94.5 75.5t66.5 84.5q16 23 56 35.5t81 12.5q98 0 98 -33q0 -27 -45 -86q-109 -139 -223.5 -200.5t-310.5 -63.5q-82 0 -82 39z" />
<glyph unicode="&#xdb;" horiz-adv-x="1415" d="M0 1278q0 113 104 184q100 74 239.5 74t209.5 -115q53 -84 53 -189.5t-22.5 -204.5t-48 -203.5t-48 -212t-22.5 -176t6 -91.5q29 -90 139 -90q143 0 250 180q90 152 127 369l12 92l-8 428q0 94 82 155.5t172 59.5q37 0 47.5 -54t10.5 -120t-8.5 -126t-19.5 -139t-26 -169 q-53 -371 -51 -514q0 -186 51 -187q31 0 76 39t90 85t83 85t52 39q29 0 29 -69q0 -143 -144.5 -278.5t-308.5 -135.5q-102 -2 -139 88q-29 72 -29 229q-137 -317 -407 -317q-182 0 -289.5 91t-107.5 288q0 47 52 248.5t82.5 331.5t30.5 206q0 166 -83 166q-29 0 -52.5 -16.5 t-47 -35t-48.5 -34.5t-56.5 -16t-31.5 55zM412 1761q0 25 31.5 52.5t65.5 54t69 51.5q92 68 139 104q92 70 180 70q35 0 78 -25q137 -82 203.5 -134t150.5 -146q12 -12 12 -27q0 -33 -67.5 -66.5t-120.5 -33.5t-84 29.5t-61 60.5q-92 88 -193 152q-94 -74 -143 -117 q-78 -70 -169 -70t-91 45z" />
<glyph unicode="&#xdc;" horiz-adv-x="1415" d="M0 1278q0 113 104 184q100 74 239.5 74t209.5 -115q53 -84 53 -189.5t-22.5 -204.5t-48 -203.5t-48 -212t-22.5 -176t6 -91.5q29 -90 139 -90q143 0 250 180q90 152 127 369l12 92l-8 428q0 94 82 155.5t172 59.5q37 0 47.5 -54t10.5 -120t-8.5 -126t-19.5 -139t-26 -169 q-53 -371 -51 -514q0 -186 51 -187q31 0 76 39t90 85t83 85t52 39q29 0 29 -69q0 -143 -144.5 -278.5t-308.5 -135.5q-102 -2 -139 88q-29 72 -29 229q-137 -317 -407 -317q-182 0 -289.5 91t-107.5 288q0 47 52 248.5t82.5 331.5t30.5 206q0 166 -83 166q-29 0 -52.5 -16.5 t-47 -35t-48.5 -34.5t-56.5 -16t-31.5 55zM468 1822q-1 87 56.5 156.5t126.5 71.5q80 0 146 -145q-33 -78 -100.5 -124t-147.5 -46t-81 87zM879 1831q0 92 43 146.5t102 54.5q115 0 170 -68q-88 -229 -213 -229q-47 0 -74.5 29.5t-27.5 66.5z" />
<glyph unicode="&#xdd;" horiz-adv-x="1325" d="M0 1278q0 113 104 184q100 74 239.5 74t209.5 -102q53 -76 53 -172.5t-22.5 -185.5t-48 -183t-48 -191.5t-22.5 -199.5q0 -123 108 -123q119 0 211 143q25 109 93.5 377t80.5 330q27 121 61 192.5t85 71.5q94 0 144 -42t50 -151.5t-73 -246.5q-12 -74 -26.5 -154 t-37 -209t-84.5 -438q242 98 296 161.5t85 63.5t31 -63.5t-38 -110.5t-119 -106.5t-296 -151.5q-106 -455 -389 -573q-78 -33 -164 -33q-184 0 -293 69q-125 78 -124 232q0 137 409 291q205 76 248 88q0 49 10 127q-127 -72 -277.5 -72t-226 91t-75.5 251q0 76 25.5 162 t57 175t57 175t25.5 160q0 137 -83 137q-29 0 -52.5 -16.5t-47 -35t-48.5 -34.5t-56.5 -16t-31.5 55zM274 -285q0 -51 61.5 -83.5t117 -34t86.5 25.5q82 68 139 287q-109 -39 -184.5 -63.5t-125 -45t-72 -40t-22.5 -46.5zM754 1729q0 33 61 51q143 45 203.5 85t94.5 75.5 t67 84.5q16 23 56 35.5t81 12.5q98 0 98 -33q0 -27 -45 -86q-109 -139 -223.5 -200.5t-310.5 -63.5q-82 0 -82 39z" />
<glyph unicode="&#xde;" horiz-adv-x="1175" d="M51 553q0 23 36 22.5t95 -24.5q46 213 105 426q-92 -18 -135 -18.5t-43 34.5q-4 68 235 176q45 137 75 205t70.5 114t108.5 46q31 0 59 -70q8 -20 8.5 -52t-24.5 -169h4q315 2 428 -256q41 -94 41 -215q0 -250 -131 -405q-152 -178 -416 -179q-51 0 -116 27 q-4 -29 -5 -47v-29q0 -6 3 -14q-2 -33 -7 -59q-12 -76 -82 -76q-129 0 -176 50t-47 148.5t19 219.5q-104 96 -105 145zM475 428q51 -12 111 -12q104 0 165.5 112.5t61.5 246.5t-49 203t-119 69q-23 0 -47 -5q-29 -137 -63.5 -295.5t-59.5 -318.5z" />
<glyph unicode="&#xdf;" horiz-adv-x="1304" d="M-82 -371q0 354 119 808t305 751q211 338 436 338q141 0 226.5 -73t85.5 -208q0 -236 -156 -401q29 -39 65.5 -75t69.5 -77q74 -98 74 -235v-13q-2 -133 -64 -235h27q51 0 101 43t94.5 94t79 94t57.5 43q31 0 30 -69q0 -150 -115.5 -284t-308.5 -136q-63 0 -139 47 q-139 -76 -315 -76q-127 0 -186.5 63.5t-59.5 168t77 157t173 52.5t152.5 -33t113.5 -72q18 49 18.5 108.5t-33.5 109.5t-74 99.5t-73.5 102.5t-33.5 108.5t16 86t39.5 56t50.5 48.5q111 90 109 211q0 96 -82 96q-78 0 -185 -156q-104 -156 -186 -385q-143 -393 -215 -929 q-23 -168 -37 -261.5t-30.5 -125t-49.5 -31.5q-51 0 -101 44t-62.5 77.5t-12.5 68.5zM543 182q0 -31 22 -44t47 -13q78 0 146 43q-35 29 -70 52.5t-67.5 23.5t-55 -15.5t-22.5 -46.5z" />
<glyph unicode="&#xe0;" d="M51 293q0 348 232 549q98 84 183 110.5t179 26.5t154 -33q29 59 65 60q72 0 136.5 -62.5t64.5 -118.5q-29 -68 -84 -161q-16 -94 -16 -264.5t43 -170.5q53 0 258 213q37 41 53 41q37 0 37 -94q0 -51 -43 -123.5t-111.5 -133t-152.5 -99.5t-164 -39q-109 0 -146 190 q-53 -88 -139 -144t-230.5 -56t-232.5 90t-86 219zM197 1511q0 49 15 75t87 26t109 -37q14 -14 16 -37q20 -233 190 -346q25 -16 25 -41q0 -16 -56.5 -15t-128 23.5t-128.5 69.5q-129 106 -129 282zM352 360q0 -158 117 -157q125 2 207 133q29 45 47 110q0 229 41 394 q-166 -33 -289 -160t-123 -320z" />
<glyph unicode="&#xe1;" d="M51 293q0 348 232 549q98 84 183 110.5t179 26.5t154 -33q29 59 65 60q72 0 136.5 -62.5t64.5 -118.5q-29 -68 -84 -161q-16 -94 -16 -264.5t43 -170.5q53 0 258 213q37 41 53 41q37 0 37 -94q0 -51 -43 -123.5t-111.5 -133t-152.5 -99.5t-164 -39q-109 0 -146 190 q-53 -88 -139 -144t-230.5 -56t-232.5 90t-86 219zM352 360q0 -158 117 -157q125 2 207 133q29 45 47 110q0 229 41 394q-166 -33 -289 -160t-123 -320zM604 1165q2 35 64 54q12 4 48 12t82 46t79.5 87t59.5 104.5t52 104.5q12 25 54 36t83 11q96 0 97 -33q2 -23 -125 -219 q-156 -242 -412 -242q-82 0 -82 39z" />
<glyph unicode="&#xe2;" d="M51 293q0 348 232 549q98 84 183 110.5t179 26.5t154 -33q29 59 65 60q72 0 136.5 -62.5t64.5 -118.5q-29 -68 -84 -161q-16 -94 -16 -264.5t43 -170.5q53 0 258 213q37 41 53 41q37 0 37 -94q0 -51 -43 -123.5t-111.5 -133t-152.5 -99.5t-164 -39q-109 0 -146 190 q-53 -88 -139 -144t-230.5 -56t-232.5 90t-86 219zM276 1198q0 25 27 47q76 66 136.5 134.5t125.5 146.5q27 31 77 54.5t92 23.5t65 -15q115 -78 250 -262q37 -49 66.5 -82t29.5 -49q0 -33 -67.5 -65.5t-121 -32.5t-75.5 22q-66 72 -108 131.5t-93 116.5q-98 -111 -162 -162 q-57 -53 -149.5 -53t-92.5 45zM352 360q0 -158 117 -157q125 2 207 133q29 45 47 110q0 229 41 394q-166 -33 -289 -160t-123 -320z" />
<glyph unicode="&#xe3;" d="M51 293q0 348 232 549q98 84 183 110.5t179 26.5t154 -33q29 59 65 60q72 0 136.5 -62.5t64.5 -118.5q-29 -68 -84 -161q-16 -94 -16 -264.5t43 -170.5q53 0 258 213q37 41 53 41q37 0 37 -94q0 -51 -43 -123.5t-111.5 -133t-152.5 -99.5t-164 -39q-109 0 -146 190 q-53 -88 -139 -144t-230.5 -56t-232.5 90t-86 219zM186 1286q0 29 39 72q88 109 182.5 150.5t160 41.5t116.5 -34.5t96 -76.5t88 -77t76 -35t47.5 12.5t35 27.5t48 28.5t82.5 13.5t55 -37q0 -12 -6 -16q-96 -201 -309 -201q-63 0 -112.5 33t-94.5 70.5t-90 70.5t-100 33 q-37 0 -76 -68q-31 -45 -145 -57q-30 -4 -50 -4q-43 0 -43 53zM352 360q0 -158 117 -157q125 2 207 133q29 45 47 110q0 229 41 394q-166 -33 -289 -160t-123 -320z" />
<glyph unicode="&#xe4;" d="M51 293q0 348 232 549q98 84 183 110.5t179 26.5t154 -33q29 59 65 60q72 0 136.5 -62.5t64.5 -118.5q-29 -68 -84 -161q-16 -94 -16 -264.5t43 -170.5q53 0 258 213q37 41 53 41q37 0 37 -94q0 -51 -43 -123.5t-111.5 -133t-152.5 -99.5t-164 -39q-109 0 -146 190 q-53 -88 -139 -144t-230.5 -56t-232.5 90t-86 219zM337 1321q-1 88 56.5 157.5t126.5 69.5q80 0 146 -145q-33 -78 -100.5 -124t-147.5 -46t-81 88zM352 360q0 -158 117 -157q125 2 207 133q29 45 47 110q0 229 41 394q-166 -33 -289 -160t-123 -320zM748 1329 q0 92 43 146.5t102 54.5q115 0 170 -68q-88 -229 -213 -229q-47 0 -74.5 29.5t-27.5 66.5z" />
<glyph unicode="&#xe5;" d="M51 293q0 348 232 549q98 84 183 110.5t179 26.5t154 -33q29 59 65 60q72 0 136.5 -62.5t64.5 -118.5q-29 -68 -84 -161q-16 -94 -16 -264.5t43 -170.5q53 0 258 213q37 41 53 41q37 0 37 -94q0 -51 -43 -123.5t-111.5 -133t-152.5 -99.5t-164 -39q-109 0 -146 190 q-53 -88 -139 -144t-230.5 -56t-232.5 90t-86 219zM352 360q0 -158 117 -157q125 2 207 133q29 45 47 110q0 229 41 394q-166 -33 -289 -160t-123 -320zM408 1436q0 156 159 211q47 16 101 16h22q18 6 51 6t88.5 -23.5t100.5 -60.5q106 -88 107 -185t-112.5 -165t-228 -68 t-202.5 76t-86 193zM608.5 1454q-0.5 -47 37.5 -96t115 -48t77 74q0 41 -41 78t-84 56q-8 -2 -36 -2t-54 8q-14 -23 -14.5 -70z" />
<glyph unicode="&#xe6;" horiz-adv-x="1538" d="M51 293q0 348 232 549q160 137 344 137t276 -170q156 174 363 174q117 0 177 -55.5t60 -145.5t-43 -157.5t-111.5 -120.5t-153.5 -95t-167 -83q27 -102 189.5 -102.5t312.5 126.5q55 47 90 87t53 40q29 0 29 -57.5t-31 -128t-102 -137.5q-176 -166 -484 -166 q-98 0 -185 36.5t-134 114.5q-178 -156 -367 -155q-176 0 -263 90t-85 219zM352 370q0 -167 117 -167q98 0 254 102v2q0 233 113 412q-86 61 -158 61q-143 0 -234.5 -121.5t-91.5 -288.5zM1028 477q164 125 205 207q16 33 16 66q0 51 -63 51q-123 0 -158 -324z" />
<glyph unicode="&#xe7;" horiz-adv-x="747" d="M41 307q0 285 176 486q78 90 178.5 140t190.5 50q158 0 157 -125q0 -72 -29.5 -115t-60.5 -43q-41 0 -71.5 29t-67.5 30t-70.5 -36t-56.5 -94q-45 -115 -45 -269q2 -74 68 -110q45 -25 106.5 -26t117.5 40t103 89t83 89t54 41q37 0 37 -77q0 -43 -26.5 -108t-79.5 -126 q-125 -147 -330 -176q-4 -53 -12 -98q66 0 101.5 -36t35.5 -91q0 -117 -96 -218.5t-217 -103.5q-74 0 -135.5 54.5t-59.5 125.5q2 39 84 60q20 4 46 4t42.5 -13.5t25.5 -33t16 -41t24 -39.5q35 35 58.5 82t23 83.5t-16.5 65.5q-49 -12 -95 -12t-46 25q0 6 14.5 39.5 t20.5 150.5q-170 35 -228 186q-20 53 -20 121z" />
<glyph unicode="&#xe8;" horiz-adv-x="856" d="M41 340q0 115 45 238.5t120 214t173 140.5t209.5 50t172 -55.5t60.5 -143.5t-44 -144t-113.5 -94t-154.5 -67.5t-167 -66.5v-52q2 -74 61.5 -104.5t135.5 -32.5q160 0 309 127q55 47 90 87t53 40q29 0 29 -57.5t-31 -128t-102 -137.5q-176 -166 -484 -166 q-244 0 -331 176q-31 61 -31 176zM104 1511q0 49 15.5 75t87.5 26t108 -37q14 -14 17 -37q20 -233 190 -346q25 -16 25 -41q0 -16 -56.5 -15t-128 23.5t-129.5 69.5q-129 106 -129 282zM356 553q43 29 81 51.5t67 42.5q61 45 63 103q0 51 -63 51q-106 0 -148 -248z" />
<glyph unicode="&#xe9;" horiz-adv-x="856" d="M41 340q0 115 45 238.5t120 214t173 140.5t209.5 50t172 -55.5t60.5 -143.5t-44 -144t-113.5 -94t-154.5 -67.5t-167 -66.5v-52q2 -74 61.5 -104.5t135.5 -32.5q160 0 309 127q55 47 90 87t53 40q29 0 29 -57.5t-31 -128t-102 -137.5q-176 -166 -484 -166 q-244 0 -331 176q-31 61 -31 176zM356 553q43 29 81 51.5t67 42.5q61 45 63 103q0 51 -63 51q-106 0 -148 -248zM512 1165q0 35 61 54q12 4 49 12t83.5 46t80 87t59 104.5t52.5 104.5q12 25 54 36t83 11q96 0 96 -33q0 -23 -126 -219q-156 -242 -410 -242q-82 0 -82 39z" />
<glyph unicode="&#xea;" horiz-adv-x="856" d="M41 340q0 115 45 238.5t120 214t173 140.5t209.5 50t172 -55.5t60.5 -143.5t-44 -144t-113.5 -94t-154.5 -67.5t-167 -66.5v-52q2 -74 61.5 -104.5t135.5 -32.5q160 0 309 127q55 47 90 87t53 40q29 0 29 -57.5t-31 -128t-102 -137.5q-176 -166 -484 -166 q-244 0 -331 176q-31 61 -31 176zM184 1198q0 25 27 47q76 66 136.5 134.5t125.5 146.5q27 31 77 54.5t92 23.5t65 -15q113 -78 247 -262q37 -49 68 -82t31 -49q0 -33 -66.5 -65.5t-121 -32.5t-77.5 22q-66 72 -107.5 131.5t-92.5 116.5q-98 -111 -162 -162 q-57 -53 -149.5 -53t-92.5 45zM356 553q43 29 81 51.5t67 42.5q61 45 63 103q0 51 -63 51q-106 0 -148 -248z" />
<glyph unicode="&#xeb;" horiz-adv-x="856" d="M41 340q0 115 45 238.5t120 214t173 140.5t209.5 50t172 -55.5t60.5 -143.5t-44 -144t-113.5 -94t-154.5 -67.5t-167 -66.5v-52q2 -74 61.5 -104.5t135.5 -32.5q160 0 309 127q55 47 90 87t53 40q29 0 29 -57.5t-31 -128t-102 -137.5q-176 -166 -484 -166 q-244 0 -331 176q-31 61 -31 176zM246 1321q0 88 57 157.5t125 69.5q80 0 145 -145q-32 -78 -99.5 -124t-147.5 -46t-80 88zM356 553q43 29 81 51.5t67 42.5q61 45 63 103q0 51 -63 51q-106 0 -148 -248zM655 1329q0 92 43 146.5t103 54.5q115 0 170 -68q-88 -229 -213 -229 q-47 0 -75 29.5t-28 66.5z" />
<glyph unicode="&#xec;" horiz-adv-x="595" d="M74 1511q0 49 15 75t87 26t109 -37q14 -14 17 -54l6 -80t10.5 -94.5t54.5 -144.5q4 -10 12 -22.5t8 -27.5t-42 -15t-90 32.5t-89 85.5q-98 123 -98 256zM102 377q0 209 52 379q80 262 180 262q59 0 94 -80q29 -61 27 -121q0 -82 -49 -289q-47 -180 -47.5 -223t21 -59.5 t51.5 -16.5t75 39t90 85t83 85t52 39q29 0 29 -69q0 -143 -144.5 -279.5t-308.5 -134.5q-205 0 -205 383z" />
<glyph unicode="&#xed;" horiz-adv-x="595" d="M102 377q0 209 52 379q80 262 180 262q59 0 94 -80q29 -61 27 -121q0 -82 -49 -289q-47 -180 -47.5 -223t21 -59.5t51.5 -16.5t75 39t90 85t83 85t52 39q29 0 29 -69q0 -143 -144.5 -279.5t-308.5 -134.5q-205 0 -205 383zM279 1159q0 31 27.5 50.5t71.5 32.5t83 50 t65.5 83t47 97.5t47.5 100.5q12 25 54 36t83 11q98 0 98 -33t-90 -162t-148 -182q-125 -117 -260 -117q-80 0 -79 33z" />
<glyph unicode="&#xee;" horiz-adv-x="595" d="M102 377q0 209 52 379q80 262 180 262q59 0 94 -80q29 -61 27 -121q0 -82 -49 -289q-47 -180 -47.5 -223t21 -59.5t51.5 -16.5t75 39t90 85t83 85t52 39q29 0 29 -69q0 -143 -144.5 -279.5t-308.5 -134.5q-205 0 -205 383zM131 1194l14 27q94 188 146 254 q96 131 148.5 131t64.5 -15q82 -84 118.5 -148.5t59.5 -108.5t49.5 -84t26.5 -48q0 -37 -46 -69.5t-102.5 -32.5t-74.5 22q-78 102 -134 230q-25 -43 -43 -82q-55 -115 -143 -115q-20 0 -52 8t-32 31z" />
<glyph unicode="&#xef;" horiz-adv-x="595" d="M63 1274q0 82 48.5 148.5t105.5 66.5q66 0 125 -137q-29 -74 -86 -117t-125 -43t-68 82zM102 377q0 209 52 379q80 262 180 262q59 0 94 -80q29 -61 27 -121q0 -82 -49 -289q-47 -180 -47.5 -223t21 -59.5t51.5 -16.5t75 39t90 85t83 85t52 39q29 0 29 -69 q0 -143 -144.5 -279.5t-308.5 -134.5q-205 0 -205 383zM360 1282q0 88 36 139.5t93 51.5q89 -1 138 -64q-76 -217 -181 -217q-41 0 -63.5 27.5t-22.5 62.5z" />
<glyph unicode="&#xf0;" horiz-adv-x="1200" d="M51 293q0 348 232 549q160 137 331 137q78 0 123 -12l47 -13q16 86 27 119q-51 8 -102 14q-186 23 -191 43q-2 57 53.5 97.5t121 40.5t102 -7.5t47 -8.5t20.5 -5q47 129 92 205t101.5 76t104.5 -76t48 -139.5t-30 -124.5q57 -12 97 -18.5t64.5 -10.5t34.5 -10t10 -23 q0 -37 -59 -88t-91 -51t-161 29l-16 -25q0 -209 -22.5 -393t-94.5 -319q-156 -295 -567 -295q-147 0 -235.5 90t-86.5 219zM352 360q0 -158 117 -157q180 0 238 239q25 104 36 224t19 174q-164 -33 -287 -160t-123 -320z" />
<glyph unicode="&#xf1;" horiz-adv-x="1099" d="M92 186q0 291 23 420q31 193 139 359q37 57 80 57q74 0 139 -141q96 100 238.5 100t214 -62.5t71.5 -176t-29.5 -230.5t-43 -167t-13.5 -83t23 -33q31 0 76 39t90 85t83 85t52 39q29 0 29 -69q0 -143 -142 -277q-238 -139 -303 -139q-6 0 -8 2q-164 0 -164 262 q0 113 21.5 207t32 137t10.5 88q0 74 -85 74t-162 -126t-104 -261v-15q0 -70 21.5 -143.5t21.5 -101.5q0 -70 -174 -138q-27 -10 -47 -10q-51 0 -70.5 53.5t-19.5 165.5zM252 1286q0 29 39 72q88 109 182 150.5t159.5 41.5t117 -34.5t96.5 -76.5t88 -77t75.5 -35t47 12.5 t35 27.5t48 28.5t83 13.5t55.5 -37q0 -12 -6 -16q-96 -201 -309 -201q-63 0 -112.5 33t-94.5 70.5t-90 70.5t-101 33q-37 0 -76 -68q-31 -45 -145 -57q-29 -4 -49 -4q-43 0 -43 53z" />
<glyph unicode="&#xf2;" horiz-adv-x="1112" d="M51 387q-2 244 153.5 420t407.5 176q115 0 185 -29q121 -49 121 -92q0 -33 -169 -34t-283 -116.5t-114 -291.5q0 -92 54.5 -154.5t153.5 -62.5t165 41q-145 98 -145 284q-2 98 70.5 179t186 82.5t163 -62t49.5 -163t-48 -210.5h13q90 2 155 64q25 25 42.5 43t35.5 18 q29 0 29 -67q0 -125 -74 -187.5t-163 -62.5t-150 12q-162 -190 -388.5 -190t-339 115.5t-110.5 287.5zM162 1511q0 49 15.5 75t87 26t108.5 -37q14 -14 16 -37q21 -233 191 -346q25 -16 24 -41q0 -16 -56 -15t-128 23.5t-129 69.5q-129 106 -129 282zM817 547q0 -82 53 -135 q35 74 35 143.5t-45 69.5q-18 0 -30.5 -27t-12.5 -51z" />
<glyph unicode="&#xf3;" horiz-adv-x="1112" d="M51 387q-2 244 153.5 420t407.5 176q115 0 185 -29q121 -49 121 -92q0 -33 -169 -34t-283 -116.5t-114 -291.5q0 -92 54.5 -154.5t153.5 -62.5t165 41q-145 98 -145 284q-2 98 70.5 179t186 82.5t163 -62t49.5 -163t-48 -210.5h13q90 2 155 64q25 25 42.5 43t35.5 18 q29 0 29 -67q0 -125 -74 -187.5t-163 -62.5t-150 12q-162 -190 -388.5 -190t-339 115.5t-110.5 287.5zM569 1165q0 35 62 54q12 4 49 12t83 46t80 87t59.5 104.5t51.5 104.5q12 25 54.5 36t83.5 11q96 0 96 -33q0 -23 -127 -219q-156 -242 -410 -242q-82 0 -82 39zM817 547 q0 -82 53 -135q35 74 35 143.5t-45 69.5q-18 0 -30.5 -27t-12.5 -51z" />
<glyph unicode="&#xf4;" horiz-adv-x="1112" d="M51 387q-2 244 153.5 420t407.5 176q115 0 185 -29q121 -49 121 -92q0 -33 -169 -34t-283 -116.5t-114 -291.5q0 -92 54.5 -154.5t153.5 -62.5t165 41q-145 98 -145 284q-2 98 70.5 179t186 82.5t163 -62t49.5 -163t-48 -210.5h13q90 2 155 64q25 25 42.5 43t35.5 18 q29 0 29 -67q0 -125 -74 -187.5t-163 -62.5t-150 12q-162 -190 -388.5 -190t-339 115.5t-110.5 287.5zM242 1198q0 25 26 47q76 66 136.5 134.5t125.5 146.5q27 31 77 54.5t92 23.5t65 -15q113 -78 248 -262q37 -49 67.5 -82t30.5 -49q0 -33 -66.5 -65.5t-121 -32.5 t-76.5 22q-66 72 -108 131.5t-93 116.5q-98 -111 -162 -162q-57 -53 -149 -53t-92 45zM817 547q0 -82 53 -135q35 74 35 143.5t-45 69.5q-18 0 -30.5 -27t-12.5 -51z" />
<glyph unicode="&#xf5;" horiz-adv-x="1112" d="M51 387q-2 244 153.5 420t407.5 176q115 0 185 -29q121 -49 121 -92q0 -33 -169 -34t-283 -116.5t-114 -291.5q0 -92 54.5 -154.5t153.5 -62.5t165 41q-145 98 -145 284q-2 98 70.5 179t186 82.5t163 -62t49.5 -163t-48 -210.5h13q90 2 155 64q25 25 42.5 43t35.5 18 q29 0 29 -67q0 -125 -74 -187.5t-163 -62.5t-150 12q-162 -190 -388.5 -190t-339 115.5t-110.5 287.5zM152 1286q0 29 38 72q88 109 182.5 150.5t160 41.5t116.5 -34.5t96.5 -76.5t88.5 -77t75.5 -35t47 12.5t35 27.5t48 28.5t83 13.5t55.5 -37q0 -12 -7 -16 q-96 -201 -309 -201q-63 0 -112.5 33t-94.5 70.5t-90 70.5t-100 33q-37 0 -76 -68q-29 -45 -143 -57q-28 -4 -51 -4q-37 0 -43 53zM817 547q0 -82 53 -135q35 74 35 143.5t-45 69.5q-18 0 -30.5 -27t-12.5 -51z" />
<glyph unicode="&#xf6;" horiz-adv-x="1112" d="M51 387q-2 244 153.5 420t407.5 176q115 0 185 -29q121 -49 121 -92q0 -33 -169 -34t-283 -116.5t-114 -291.5q0 -92 54.5 -154.5t153.5 -62.5t165 41q-145 98 -145 284q-2 98 70.5 179t186 82.5t163 -62t49.5 -163t-48 -210.5h13q90 2 155 64q25 25 42.5 43t35.5 18 q29 0 29 -67q0 -125 -74 -187.5t-163 -62.5t-150 12q-162 -190 -388.5 -190t-339 115.5t-110.5 287.5zM303 1321q0 88 57.5 157.5t124.5 69.5q80 0 146 -145q-33 -78 -100.5 -124t-147.5 -46t-80 88zM713 1329q0 92 43 146.5t102 54.5q115 0 170 -68q-88 -229 -213 -229 q-47 0 -74.5 29.5t-27.5 66.5zM817 547q0 -82 53 -135q35 74 35 143.5t-45 69.5q-18 0 -30.5 -27t-12.5 -51z" />
<glyph unicode="&#xf7;" horiz-adv-x="966" d="M102 479v119h762v-119h-762zM397 229q0 47 19.5 68.5t66.5 21.5t65.5 -21.5t18.5 -68.5q0 -88 -84 -88q-47 0 -66.5 20.5t-19.5 67.5zM397 844q0 47 19.5 68.5t66.5 21.5t65.5 -21.5t18.5 -68.5q0 -88 -84 -88q-47 0 -66.5 20.5t-19.5 67.5z" />
<glyph unicode="&#xf8;" horiz-adv-x="1107" d="M41 18q0 49 22 76q8 6 17 15l39 38q-72 104 -72 230q0 260 154.5 433t406.5 173q100 0 207 -33q96 125 119 160q0 -4 12 -4q20 0 33.5 -35t13.5 -72.5t-4 -57t-28 -52.5q76 -49 75 -109q0 -14 -18 -14t-51 11t-74 24l-107 -119q-152 -172 -259 -295t-115 -131 q59 -53 143 -53q145 0 238 96q-43 76 -43 167t35.5 154.5t119.5 63.5q139 0 139 -178q0 -70 -36 -152h2q90 2 155 64q25 25 42.5 43t35.5 18q29 0 29 -67q0 -125 -74 -187.5t-182 -62.5q-63 0 -113 24q-74 -86 -178 -144t-237.5 -58t-239.5 53q-111 -135 -148 -135 q-59 0 -59 116zM348 401q0 -8 2 -16q115 121 204 232.5t167 209.5q-168 -12 -270.5 -124.5t-102.5 -282.5v-19z" />
<glyph unicode="&#xf9;" horiz-adv-x="1091" d="M41 233q0 53 15.5 98.5t49.5 110.5l60 504q63 49 182 49q94 0 107 -123q10 -100 -9.5 -179t-52.5 -198.5t-33 -211.5q0 -74 93 -74q100 0 174 176q57 135 78 301q-2 16 -3.5 42t-2.5 50.5t-1 48.5v37q0 137 213 137q53 0 66.5 -34.5t13.5 -106.5q0 -100 -45 -311 t-43 -285q0 -35 23 -35q31 0 76 39t90 85t82.5 85t52.5 39q29 0 28 -69q0 -143 -141 -277q-238 -139 -301 -139q-6 0 -10 2q-78 0 -109.5 51t-40.5 129q-41 -76 -112.5 -130t-163.5 -54q-162 0 -249 61.5t-87 181.5zM131 1511q0 49 15.5 75t87 26t108.5 -37q14 -14 16 -37 q21 -233 191 -346q25 -16 24 -41q0 -16 -56 -15t-128 23.5t-129 69.5q-129 106 -129 282z" />
<glyph unicode="&#xfa;" horiz-adv-x="1091" d="M41 233q0 53 15.5 98.5t49.5 110.5l60 504q63 49 182 49q94 0 107 -123q10 -100 -9.5 -179t-52.5 -198.5t-33 -211.5q0 -74 93 -74q100 0 174 176q57 135 78 301q-2 16 -3.5 42t-2.5 50.5t-1 48.5v37q0 137 213 137q53 0 66.5 -34.5t13.5 -106.5q0 -100 -45 -311 t-43 -285q0 -35 23 -35q31 0 76 39t90 85t82.5 85t52.5 39q29 0 28 -69q0 -143 -141 -277q-238 -139 -301 -139q-6 0 -10 2q-78 0 -109.5 51t-40.5 129q-41 -76 -112.5 -130t-163.5 -54q-162 0 -249 61.5t-87 181.5zM539 1165q2 35 63 54q12 4 48 12t82 46t80 87t59.5 104.5 t52.5 104.5q12 25 54 36t83 11q96 0 96 -33q2 -23 -125 -219q-156 -242 -411 -242q-82 0 -82 39z" />
<glyph unicode="&#xfb;" horiz-adv-x="1091" d="M41 233q0 53 15.5 98.5t49.5 110.5l60 504q63 49 182 49q94 0 107 -123q10 -100 -9.5 -179t-52.5 -198.5t-33 -211.5q0 -74 93 -74q100 0 174 176q57 135 78 301q-2 16 -3.5 42t-2.5 50.5t-1 48.5v37q0 137 213 137q53 0 66.5 -34.5t13.5 -106.5q0 -100 -45 -311 t-43 -285q0 -35 23 -35q31 0 76 39t90 85t82.5 85t52.5 39q29 0 28 -69q0 -143 -141 -277q-238 -139 -301 -139q-6 0 -10 2q-78 0 -109.5 51t-40.5 129q-41 -76 -112.5 -130t-163.5 -54q-162 0 -249 61.5t-87 181.5zM211 1198q0 25 27 47q76 66 136 134.5t126 146.5 q27 31 77 54.5t92 23.5t64 -15q115 -78 250 -262q37 -49 66.5 -82t29.5 -49q0 -33 -67.5 -65.5t-120.5 -32.5t-76 22q-66 72 -107.5 131.5t-93.5 116.5q-98 -111 -161 -162q-57 -53 -149.5 -53t-92.5 45z" />
<glyph unicode="&#xfc;" horiz-adv-x="1091" d="M41 233q0 53 15.5 98.5t49.5 110.5l60 504q63 49 182 49q94 0 107 -123q10 -100 -9.5 -179t-52.5 -198.5t-33 -211.5q0 -74 93 -74q100 0 174 176q57 135 78 301q-2 16 -3.5 42t-2.5 50.5t-1 48.5v37q0 137 213 137q53 0 66.5 -34.5t13.5 -106.5q0 -100 -45 -311 t-43 -285q0 -35 23 -35q31 0 76 39t90 85t82.5 85t52.5 39q29 0 28 -69q0 -143 -141 -277q-238 -139 -301 -139q-6 0 -10 2q-78 0 -109.5 51t-40.5 129q-41 -76 -112.5 -130t-163.5 -54q-162 0 -249 61.5t-87 181.5zM271 1321q-1 88 56.5 157.5t127.5 69.5q80 0 145 -145 q-33 -78 -100.5 -124t-147.5 -46t-81 88zM682 1329q0 92 43 146.5t102 54.5q115 0 170 -68q-88 -229 -213 -229q-47 0 -74.5 29.5t-27.5 66.5z" />
<glyph unicode="&#xfd;" horiz-adv-x="1095" d="M10 -289q0 66 44 105t121 64.5t179.5 45t218.5 47.5q29 124 39 177q-102 -141 -274 -142q-139 0 -222 58.5t-83 185.5q0 53 15 98t50 111l60 485q63 49 172 49q92 0 104 -123q4 -37 4 -87t-16 -105q-82 -283 -80 -379q0 -74 86 -74t127 55.5t70 137.5q53 227 99 374.5 t58 176.5q20 49 78 51q57 -2 108.5 -81t51.5 -122q-4 -143 -178 -723q133 104 264 256q45 53 75.5 89t49.5 36q29 0 29 -65q0 -129 -144.5 -301t-353.5 -269q-25 -82 -53.5 -155.5t-73.5 -128.5q-98 -119 -299 -119q-135 0 -230.5 77.5t-95.5 194.5zM199 -313 q0 -39 46 -65.5t89 -24.5q96 0 174 167q-74 -14 -131.5 -21t-97.5 -13q-82 -12 -80 -43zM539 1165q2 35 63 54q12 4 48 12t82 46t80 87t59.5 104.5t52.5 104.5q12 25 54 36t83 11q96 0 96 -33q2 -23 -125 -219q-156 -242 -411 -242q-82 0 -82 39z" />
<glyph unicode="&#xfe;" horiz-adv-x="1122" d="M102 168q0 287 68 600t132.5 472t100 212t56 65.5t46 12.5t50.5 -25.5t48.5 -74t23.5 -102.5t-27 -100t-58.5 -91t-57 -93.5t-25.5 -109.5v-6q133 55 288.5 55t255 -88t99.5 -217q0 -233 -124 -349t-291 -116t-284 68q-2 -20 -2 -43l2 -50q0 -119 -34 -149 q-88 -70 -170 -70q-96 0 -97 199zM414 455q80 -18 180 -18.5t153.5 37.5t53.5 136q-2 61 -68 103q-76 31 -112 35q-119 0 -191 -54q-16 -119 -16 -221v-18z" />
<glyph unicode="&#xff;" horiz-adv-x="1095" d="M10 -289q0 66 44 105t121 64.5t179.5 45t218.5 47.5q29 124 39 177q-102 -141 -274 -142q-139 0 -222 58.5t-83 185.5q0 53 15 98t50 111l60 485q63 49 172 49q92 0 104 -123q4 -37 4 -87t-16 -105q-82 -283 -80 -379q0 -74 86 -74t127 55.5t70 137.5q53 227 99 374.5 t58 176.5q20 49 78 51q57 -2 108.5 -81t51.5 -122q-4 -143 -178 -723q133 104 264 256q45 53 75.5 89t49.5 36q29 0 29 -65q0 -129 -144.5 -301t-353.5 -269q-25 -82 -53.5 -155.5t-73.5 -128.5q-98 -119 -299 -119q-135 0 -230.5 77.5t-95.5 194.5zM199 -313 q0 -39 46 -65.5t89 -24.5q96 0 174 167q-74 -14 -131.5 -21t-97.5 -13q-82 -12 -80 -43zM271 1321q-1 88 56.5 157.5t127.5 69.5q80 0 145 -145q-33 -78 -100.5 -124t-147.5 -46t-81 88zM682 1329q0 92 43 146.5t102 54.5q115 0 170 -68q-88 -229 -213 -229 q-47 0 -74.5 29.5t-27.5 66.5z" />
<glyph unicode="&#x152;" horiz-adv-x="2355" d="M143 612q0 180 58.5 348t166 297t261 207t362.5 78t342 -143q0 4 2 6q39 92 145.5 92t239.5 4t260 9.5t226.5 9.5t134.5 4q55 0 55 -43q0 -12 -16.5 -44t-28.5 -69q-27 -74 -115 -74h-82l-514 4l-77 -444l514 -6q53 0 53 -39q0 -12 -16.5 -43t-28.5 -64q-27 -68 -109 -67 l-446 12q-39 -281 -49 -446q283 12 405.5 12t188 20.5t104.5 45t64.5 45t52.5 20.5q47 0 47 -82q0 -285 -574 -285l-356 19q-57 -27 -170 -27q-47 0 -58 44t-11 124q-170 -154 -359 -153q-338 0 -516 192q-156 170 -156 436zM465 690q0 -205 94 -319.5t276.5 -114.5 t344.5 121q37 575 104 866q-25 12 -55 31q-123 72 -255 72t-224.5 -60.5t-155 -155t-96 -211t-33.5 -229.5z" />
<glyph unicode="&#x153;" horiz-adv-x="1640" d="M51 387q-2 244 153.5 420t407.5 176q125 0 190.5 -54.5t65.5 -133.5q0 -158 -53 -158q-25 0 -46 25.5t-46 54.5q-68 82 -127 82q-115 0 -179.5 -112t-64.5 -267q0 -92 54.5 -154.5t146.5 -62.5q160 0 274 59q-2 8 -2 21v24q2 287 166 486q156 190 381 190 q113 0 173.5 -55.5t60.5 -145.5t-43 -157.5t-112 -120.5t-154 -95t-167 -83q27 -102 190 -102.5t312 126.5q55 47 90 87t54 40q29 0 28.5 -57.5t-31 -128t-102.5 -138t-189.5 -116.5t-308 -49t-288.5 127q-184 -131 -387 -131q-227 0 -342 122q-106 109 -105 281zM1130 477 q164 125 205 207q16 33 17 66q-1 51 -64 51q-123 0 -158 -324z" />
<glyph unicode="&#x178;" horiz-adv-x="1325" d="M0 1278q0 113 104 184q100 74 239.5 74t209.5 -102q53 -76 53 -172.5t-22.5 -185.5t-48 -183t-48 -191.5t-22.5 -199.5q0 -123 108 -123q119 0 211 143q25 109 93.5 377t80.5 330q27 121 61 192.5t85 71.5q94 0 144 -42t50 -151.5t-73 -246.5q-12 -74 -26.5 -154 t-37 -209t-84.5 -438q242 98 296 161.5t85 63.5t31 -63.5t-38 -110.5t-119 -106.5t-296 -151.5q-106 -455 -389 -573q-78 -33 -164 -33q-184 0 -293 69q-125 78 -124 232q0 137 409 291q205 76 248 88q0 49 10 127q-127 -72 -277.5 -72t-226 91t-75.5 251q0 76 25.5 162 t57 175t57 175t25.5 160q0 137 -83 137q-29 0 -52.5 -16.5t-47 -35t-48.5 -34.5t-56.5 -16t-31.5 55zM274 -285q0 -51 61.5 -83.5t117 -34t86.5 25.5q82 68 139 287q-109 -39 -184.5 -63.5t-125 -45t-72 -40t-22.5 -46.5zM456 1822q-1 87 56 156.5t127 71.5q80 0 145 -145 q-32 -78 -100 -124t-147.5 -46t-80.5 87zM866 1831q0 92 43 146.5t103 54.5q115 0 170 -68q-88 -229 -213 -229q-47 0 -75 29.5t-28 66.5z" />
<glyph unicode="&#x2c6;" horiz-adv-x="1024" d="M78 1198q0 25 26 47q76 66 136.5 134.5t126.5 146.5q27 31 77 54.5t92 23.5t64 -15q113 -78 248 -262q37 -49 67.5 -82t30.5 -49q0 -33 -66.5 -65.5t-120.5 -32.5t-77 22q-66 72 -108 131.5t-93 116.5q-98 -111 -162 -162q-57 -53 -149 -53t-92 45z" />
<glyph unicode="&#x2dc;" horiz-adv-x="1024" d="M-2 1286q0 29 39 72q88 109 182 150.5t159.5 41.5t117 -34.5t96.5 -76.5t88 -77t75.5 -35t47 12.5t35 27.5t48 28.5t83 13.5t55.5 -37q0 -12 -6 -16q-96 -201 -309 -201q-63 0 -112.5 33t-94.5 70.5t-90 70.5t-101 33q-37 0 -75 -68q-31 -45 -146 -57q-29 -4 -49 -4 q-43 0 -43 53z" />
<glyph unicode="&#x2000;" horiz-adv-x="1057" />
<glyph unicode="&#x2001;" horiz-adv-x="2114" />
<glyph unicode="&#x2002;" horiz-adv-x="1057" />
<glyph unicode="&#x2003;" horiz-adv-x="2114" />
<glyph unicode="&#x2004;" horiz-adv-x="704" />
<glyph unicode="&#x2005;" horiz-adv-x="528" />
<glyph unicode="&#x2006;" horiz-adv-x="352" />
<glyph unicode="&#x2007;" horiz-adv-x="352" />
<glyph unicode="&#x2008;" horiz-adv-x="264" />
<glyph unicode="&#x2009;" horiz-adv-x="422" />
<glyph unicode="&#x200a;" horiz-adv-x="117" />
<glyph unicode="&#x2010;" horiz-adv-x="802" d="M94 573q0 166 281 166l323 -6q25 0 25 -24q0 -43 -51 -103.5t-86 -60.5l-183 14l-297 -4q-12 0 -12 18z" />
<glyph unicode="&#x2011;" horiz-adv-x="802" d="M94 573q0 166 281 166l323 -6q25 0 25 -24q0 -43 -51 -103.5t-86 -60.5l-183 14l-297 -4q-12 0 -12 18z" />
<glyph unicode="&#x2012;" horiz-adv-x="802" d="M94 573q0 166 281 166l323 -6q25 0 25 -24q0 -43 -51 -103.5t-86 -60.5l-183 14l-297 -4q-12 0 -12 18z" />
<glyph unicode="&#x2013;" horiz-adv-x="901" d="M-31 580q0 53 44 103t96 50h882q25 0 25 -24q0 -39 -52.5 -95.5t-84.5 -56.5q-147 2 -273 6l-338 6l-286 -12q-12 0 -13 23z" />
<glyph unicode="&#x2014;" horiz-adv-x="1417" d="M-31 580q0 53 44 103t96 50h1398q25 0 25 -24q0 -39 -52.5 -95.5t-84.5 -56.5q-217 2 -394 6l-458 6l-307 -6q-115 -4 -254 -6q-12 0 -13 23z" />
<glyph unicode="&#x2018;" horiz-adv-x="708" d="M123 1147q0 154 122 302t267 148q29 0 61.5 -11t32.5 -42t-21.5 -47t-50 -31.5t-56.5 -36t-42 -59.5q70 -45 69 -140t-73 -156.5t-170 -61.5q-55 0 -97 30.5t-42 104.5z" />
<glyph unicode="&#x2019;" horiz-adv-x="708" d="M123 1065q0 31 21.5 47t50 31.5t56.5 36t42 59.5q-70 45 -69 140.5t73 156.5t170 61q55 0 97 -30.5t42 -105.5t-31.5 -153.5t-86 -144t-125 -108.5t-146.5 -43q-29 0 -61.5 11t-32.5 42z" />
<glyph unicode="&#x201a;" horiz-adv-x="749" d="M164 -194.5q0 30.5 21.5 47t50 32t56.5 36t42 59.5q-70 45 -69 140t73 156.5t170 61.5q55 0 97 -31t42 -105.5t-31.5 -153.5t-86 -144.5t-125 -108.5t-146.5 -43q-29 0 -61.5 11.5t-32.5 42z" />
<glyph unicode="&#x201c;" horiz-adv-x="1120" d="M102 1163q0 135 113 274.5t256 139.5q29 0 61.5 -11.5t32.5 -42t-21.5 -47t-50 -31.5t-56 -35.5t-42.5 -59.5q70 -45 70 -144q0 -68 -64.5 -121t-138.5 -53q-160 0 -160 131zM514 1147q0 156 121 303t268 147q29 0 61.5 -11t32.5 -42t-21.5 -47t-50 -31.5t-56.5 -36 t-42 -59.5q70 -45 70 -140t-71.5 -156.5t-172.5 -61.5q-55 0 -97 30.5t-42 104.5z" />
<glyph unicode="&#x201d;" horiz-adv-x="1120" d="M123 1065q0 31 21.5 47t50 31.5t56.5 36t42 59.5q-70 45 -69 140.5t73 156.5t170 61q55 0 97 -30.5t42 -105.5t-31.5 -153.5t-86 -144t-125 -108.5t-146.5 -43q-29 0 -61.5 11t-32.5 42zM555 1085.5q0 30.5 21.5 47t50 32t56.5 36t42 59.5q-70 45 -70 143q0 68 64.5 121 t140.5 53q158 0 158 -133q0 -143 -112.5 -277.5t-256.5 -134.5q-29 0 -61.5 11.5t-32.5 42z" />
<glyph unicode="&#x201e;" horiz-adv-x="1161" d="M164 -194.5q0 30.5 21.5 47t50 32t56.5 36t42 59.5q-70 45 -69 140t73 156.5t170 61.5q55 0 97 -31t42 -105.5t-31.5 -153.5t-86 -144.5t-125 -108.5t-146.5 -43q-29 0 -61.5 11.5t-32.5 42zM596 -174q0 31 21.5 47t50 31.5t56.5 36t42 59.5q-70 45 -70 143q0 68 66 121 q106 53 133 53h4q160 0 160 -133q0 -143 -112.5 -277t-256.5 -134q-29 0 -61.5 11t-32.5 42z" />
<glyph unicode="&#x2022;" horiz-adv-x="933" d="M246 611.5q0 119.5 50 176t174 56.5t171 -56.5t47 -176t-51 -174t-171 -54.5t-170 54.5t-50 174z" />
<glyph unicode="&#x202f;" horiz-adv-x="422" />
<glyph unicode="&#x2039;" horiz-adv-x="1103" d="M205 455.5q0 13.5 45 68.5q125 164 291 291q209 156 385 156q55 0 55 -27q0 -18 -18.5 -30.5t-53.5 -40t-80 -66.5t-96 -84q-178 -154 -235 -223q61 -51 140 -116t196.5 -163t117.5 -110q0 -29 -70.5 -62t-112.5 -33t-67 13q-139 90 -264 204.5t-179 161.5t-54 60.5z" />
<glyph unicode="&#x203a;" horiz-adv-x="1103" d="M205 43q0 18 18.5 30.5t53 40t79.5 66.5t98.5 84t131 117.5t102.5 105.5q-455 365 -455 391.5t71 59.5t113 33t66 -13q158 -106 273.5 -212.5t170 -153.5t54.5 -60.5t-44 -69.5t-124 -138q-299 -307 -553 -308q-55 0 -55 27z" />
<glyph unicode="&#x205f;" horiz-adv-x="528" />
<glyph unicode="&#x20ac;" horiz-adv-x="1357" d="M0 559q0 55 43 104.5t96 49.5h115q8 37 16 78l-155 -9q-12 0 -13 23q0 55 43 104t97 49h80q166 408 495 543q115 47 264.5 47t243.5 -81t94 -236q0 -35 -10 -56.5t-25 -21.5q-35 2 -75 59q-94 135 -258 134q-256 0 -420 -388h493q25 0 25 -24q0 -41 -51 -96.5t-86 -55.5 l-432 11q-4 -20 -7.5 -40t-7.5 -40h457q25 0 25 -25q0 -41 -51.5 -96t-86.5 -55q-98 0 -352 8q20 -332 299 -332q184 0 346 119q53 39 96 95t73 56t30 -89t-50.5 -168t-131.5 -132q-168 -111 -398 -110q-279 0 -432 139t-153 387v37l-224 -10q-12 0 -12 22z" />
<glyph unicode="&#x25fc;" horiz-adv-x="1013" d="M0 0v1014h1014v-1014h-1014z" />
</font>
</defs>
</svg>
